<svg width="449" height="472" viewBox="0 0 449 472" fill="none" xmlns="http://www.w3.org/2000/svg">
<g clip-path="url(#clip0_5_3157)">
<path d="M242.406 374.58L228.977 374.866L222.162 374.981C219.885 375.029 217.596 375.019 215.312 375.037L214.858 375.041L214.856 374.58L214.801 363.1L214.799 362.585L215.312 362.587L228.859 362.652C233.375 362.657 237.89 362.767 242.406 362.82L242.688 362.823L242.685 363.1C242.666 365.048 242.597 366.985 242.551 368.9L242.406 374.58ZM242.406 374.58L242.261 368.779C242.215 366.868 242.146 364.979 242.127 363.1L242.406 363.38C237.89 363.432 233.375 363.543 228.859 363.548L215.312 363.612L215.823 363.1L215.768 374.58L215.312 374.123C217.545 374.141 219.771 374.131 222.009 374.179L228.741 374.294L242.406 374.58Z" fill="black"/>
<path d="M227.292 389.055L213.863 389.341L207.048 389.456C204.771 389.505 202.482 389.495 200.199 389.513L199.745 389.516L199.742 389.055L199.688 377.575L199.685 377.061L200.199 377.063L213.745 377.128C218.261 377.133 222.777 377.243 227.292 377.295L227.574 377.299L227.571 377.576C227.552 379.524 227.484 381.46 227.437 383.376L227.292 389.055ZM227.292 389.055L227.147 383.255C227.101 381.344 227.032 379.454 227.013 377.575L227.292 377.855C222.776 377.908 218.261 378.018 213.745 378.023L200.199 378.088L200.709 377.576L200.654 389.055L200.199 388.598C202.431 388.616 204.657 388.606 206.896 388.655L213.627 388.77L227.292 389.055Z" fill="black"/>
<path d="M212.238 374.58L198.809 374.866L191.994 374.981C189.717 375.029 187.427 375.019 185.144 375.037L184.69 375.041L184.688 374.58L184.633 363.1L184.631 362.585L185.144 362.587L198.691 362.652C203.207 362.657 207.722 362.767 212.238 362.82L212.52 362.823L212.517 363.1C212.498 365.048 212.429 366.985 212.383 368.9L212.238 374.58ZM212.238 374.58L212.093 368.779C212.047 366.868 211.978 364.979 211.959 363.1L212.238 363.38C207.722 363.432 203.207 363.543 198.691 363.548L185.144 363.612L185.655 363.1L185.6 374.58L185.144 374.123C187.377 374.141 189.603 374.131 191.841 374.179L198.573 374.294L212.238 374.58Z" fill="black"/>
<path d="M447.598 348.16L434.169 348.446L427.354 348.561C425.076 348.609 422.787 348.599 420.504 348.617L420.05 348.621L420.048 348.16L419.993 336.68L419.99 336.165L420.504 336.168L434.051 336.232C438.566 336.237 443.082 336.347 447.598 336.4L447.879 336.403L447.877 336.68C447.858 338.628 447.789 340.565 447.743 342.48L447.598 348.16ZM447.598 348.16L447.452 342.36C447.406 340.448 447.338 338.559 447.318 336.68L447.598 336.96C443.082 337.012 438.566 337.123 434.051 337.128L420.504 337.192L421.015 336.68L420.96 348.16L420.504 347.703C422.736 347.721 424.963 347.711 427.201 347.759L433.933 347.874L447.598 348.16Z" fill="black"/>
<path d="M432.484 58.3916L419.055 58.6775L412.24 58.7924C409.963 58.8407 407.673 58.8308 405.39 58.8488L404.936 58.8524L404.934 58.3915L404.879 46.9116L404.877 46.3967L405.39 46.3992L418.937 46.4637C423.453 46.4688 427.968 46.5791 432.484 46.6316L432.766 46.6349L432.763 46.9117C432.744 48.8597 432.675 50.7965 432.629 52.712L432.484 58.3916ZM432.484 58.3916L432.339 52.5912C432.292 50.6801 432.224 48.7904 432.205 46.9116L432.484 47.1915C427.968 47.2441 423.452 47.3543 418.937 47.3595L405.39 47.424L405.901 46.9117L405.846 58.3915L405.39 57.9343C407.622 57.9524 409.849 57.9424 412.087 57.9907L418.819 58.1056L432.484 58.3916Z" fill="black"/>
<path d="M447.598 72.8674L434.169 73.1533L427.354 73.2682C425.076 73.3165 422.787 73.3066 420.504 73.3246L420.05 73.3282L420.048 72.8673L419.993 61.3875L419.99 60.8726L420.504 60.875L434.051 60.9395C438.566 60.9446 443.082 61.0549 447.598 61.1075L447.879 61.1107L447.877 61.3875C447.858 63.3355 447.789 65.2723 447.743 67.1879L447.598 72.8674ZM447.598 72.8674L447.452 67.067C447.406 65.1559 447.338 63.2662 447.318 61.3875L447.598 61.6673C443.082 61.7199 438.566 61.8301 434.051 61.8353L420.504 61.8998L421.015 61.3875L420.96 72.8673L420.504 72.4102C422.736 72.4282 424.963 72.4183 427.201 72.4666L433.933 72.5815L447.598 72.8674Z" fill="black"/>
<path d="M47.7098 58.3917L34.2811 58.6776L27.4657 58.7925C25.1886 58.8409 22.8994 58.8309 20.6161 58.849L20.1622 58.8526L20.16 58.3916L20.1051 46.9119L20.1027 46.397L20.6162 46.3994L34.163 46.4639C38.6786 46.469 43.1942 46.5794 47.7098 46.6319L47.9919 46.6352L47.9891 46.912C47.97 48.8599 47.9013 50.7968 47.8552 52.7123L47.7098 58.3917ZM47.7098 58.3917L47.5645 52.5914C47.5184 50.6803 47.4497 48.7905 47.4306 46.9118L47.7097 47.1917C43.1941 47.2442 38.6784 47.3545 34.1629 47.3596L20.6161 47.4241L21.1269 46.9119L21.072 58.3916L20.6161 57.9344C22.8484 57.9525 25.0748 57.9425 27.3133 57.9909L34.0448 58.1058L47.7098 58.3917Z" fill="black"/>
<path d="M50.4276 0H49.4045V89.9137H50.4276V0Z" fill="#C8C8C8"/>
<path d="M81.0527 120.01L78.549 125.53H21.2755L18.7786 120.01L43.1621 103.086H56.6692L81.0527 120.01Z" fill="black"/>
<path d="M58.3621 86.781L56.6692 103.087H43.1621L41.4693 86.781H58.3621Z" fill="#DCDCDC"/>
<path d="M81.051 120.011L78.5456 125.532H21.2738L18.7769 120.011H81.051Z" fill="#DCDCDC"/>
<path d="M117.284 0H116.261V72.1041H117.284V0Z" fill="#C8C8C8"/>
<path d="M147.909 102.2L145.406 107.72H88.1322L85.6353 102.2L110.019 85.2771H123.526L147.909 102.2Z" fill="black"/>
<path d="M125.219 68.9717L123.526 85.2772H110.019L108.326 68.9717H125.219Z" fill="#DCDCDC"/>
<path d="M147.908 102.202L145.402 107.722H88.1305L85.6335 102.202H147.908Z" fill="#DCDCDC"/>
<path d="M407.124 247.498H300.683V395.199H407.124V247.498Z" fill="#DCDCDC"/>
<path d="M412.281 242.018H295.526V247.498H412.281V242.018Z" fill="black"/>
<path d="M449 242.018H412.281V247.498H449V242.018Z" fill="#DCDCDC"/>
<path d="M443.186 247.498H407.124V395.199H443.186V247.498Z" fill="black"/>
<path d="M395.659 315.854H312.147V268.531H395.659L395.659 315.854ZM312.403 315.597H395.404V268.787H312.403V315.597Z" fill="#A8A8A8"/>
<path d="M358.507 282.36H342.247V291.731H358.507V282.36Z" fill="#A8A8A8"/>
<path d="M363.441 291.152H346.926V282.939H363.441V291.152ZM347.181 290.896H363.185V283.195H347.181V290.896Z" fill="#A8A8A8"/>
<path d="M395.659 375.317H312.147V327.994H395.659L395.659 375.317ZM312.403 375.06H395.404V328.25H312.403V375.06Z" fill="#A8A8A8"/>
<path d="M358.507 341.824H342.247V351.194H358.507V341.824Z" fill="#A8A8A8"/>
<path d="M363.441 350.615H346.926V342.402H363.441V350.615ZM347.181 350.359H363.185V342.658H347.181V350.359Z" fill="#A8A8A8"/>
<path d="M104.314 272.024C103.176 273.101 101.764 273.844 100.233 274.171C99.2658 274.415 98.2718 274.551 97.2891 274.735H93.9243C92.5448 274.52 91.157 274.354 89.7886 274.081C84.7564 272.996 79.9898 270.917 75.7662 267.967C64.6395 260.596 55.2661 250.861 48.3101 239.453C45.975 235.689 44.3666 231.518 43.5687 227.158C43.3654 226.012 43.2112 224.857 43.0331 223.705V220.332C43.3107 219.035 43.5336 217.725 43.8829 216.449C44.2125 215.252 44.8462 214.162 45.7221 213.284C45.8819 213.428 46.0377 213.553 46.1792 213.695C51.5318 219.056 56.8864 224.417 62.2427 229.775C62.4158 229.92 62.5392 230.116 62.5956 230.335C62.6519 230.554 62.6384 230.785 62.5568 230.995C62.1492 232.323 62.0947 233.734 62.3987 235.089C62.7026 236.444 63.3545 237.696 64.2897 238.72C68.8528 243.93 73.7445 248.84 78.9346 253.422C79.9685 254.364 81.2302 255.018 82.5944 255.321C83.9585 255.623 85.3778 255.562 86.7113 255.144C87.094 255.043 87.3744 254.978 87.7081 255.314C93.1786 260.823 98.658 266.324 104.146 271.816C104.195 271.866 104.233 271.925 104.314 272.024Z" fill="#1B144E"/>
<path d="M114.814 259.974V261.099C114.326 261.797 113.802 262.468 113.242 263.109C111.588 264.827 109.883 266.497 108.196 268.184C108.017 268.364 107.831 268.534 107.683 268.674C102.154 263.134 96.649 257.618 91.1682 252.124C93.3272 249.988 95.4876 247.792 97.7167 245.666C97.9577 245.44 98.2417 245.265 98.5517 245.152C98.8618 245.038 99.1915 244.988 99.5211 245.006C99.8507 245.023 100.173 245.107 100.47 245.252C100.766 245.398 101.031 245.601 101.247 245.852C102.486 247.061 103.696 248.298 104.919 249.524C107.791 252.404 110.678 255.273 113.527 258.179C114.002 258.742 114.433 259.343 114.814 259.974Z" fill="#1B144E"/>
<path d="M71.5422 220.416C69.4952 222.395 67.4105 224.335 65.3846 226.252C60.0964 220.953 54.6022 215.446 48.9972 209.832C49.3615 209.504 49.7752 209.164 50.1538 208.787C51.661 207.287 53.1385 205.753 54.6708 204.279C55.2961 203.736 55.9509 203.229 56.6322 202.759H57.7539C58.3819 203.142 58.9786 203.575 59.5384 204.052C63.5538 208.038 67.538 212.054 71.5322 216.061C71.8845 216.303 72.1728 216.628 72.3723 217.006C72.5718 217.385 72.6765 217.807 72.6775 218.236C72.6785 218.664 72.5757 219.086 72.3779 219.466C72.1801 219.846 71.8933 220.172 71.5422 220.416Z" fill="#1B144E"/>
<path d="M425.181 46.1272H317.553V106.511H425.181V46.1272Z" fill="#DCDCDC"/>
<path d="M297.415 106.51H317.553V85.4841L297.415 106.51Z" fill="#DCDCDC"/>
<path d="M402.267 77.6558H330.259V78.9567H402.267V77.6558Z" fill="white"/>
<path d="M387.461 84.6814H330.259V85.9825H387.461V84.6814Z" fill="white"/>
<path d="M391.778 63.6042H330.259V64.9052H391.778V63.6042Z" fill="white"/>
<path d="M410.581 56.5786H330.259V57.8797H410.581V56.5786Z" fill="white"/>
<path d="M393.393 91.707H330.259V93.008H393.393V91.707Z" fill="white"/>
<path opacity="0.35" d="M261.724 472C358.425 472 436.817 463.415 436.817 452.825C436.817 442.235 358.425 433.65 261.724 433.65C165.023 433.65 86.6307 442.235 86.6307 452.825C86.6307 463.415 165.023 472 261.724 472Z" fill="black"/>
<path d="M32.9584 374.162C37.6943 370.823 43.237 347.549 43.5676 333.686C43.4138 329.111 44.8684 324.626 47.6773 321.017C48.8179 319.729 49.6317 318.184 50.0498 316.513C50.468 314.843 50.478 313.095 50.0791 311.42C48.3819 301.965 52.8442 297.884 52.8897 297.844L52.3732 297.253C52.1744 297.428 47.5271 301.637 49.3083 311.559C49.6882 313.132 49.6801 314.774 49.2846 316.343C48.8891 317.911 48.1181 319.36 47.0385 320.563C44.1498 324.305 42.6462 328.937 42.7844 333.668C42.4296 348.545 36.763 370.519 32.5077 373.52L32.9584 374.162Z" fill="black"/>
<path d="M23.0313 367.374C22.5842 366.358 22.1218 365.307 21.5981 364.198C18.8926 358.472 16.4961 357.529 12.5255 355.966C11.5552 355.585 10.4555 355.152 9.24854 354.608C3.56079 352.045 4.66201 348.268 5.63371 344.935C5.76949 344.469 5.90513 344.005 6.02246 343.544C6.52277 341.585 5.56168 340.601 4.107 339.113C2.68878 337.776 1.51618 336.2 0.642825 334.455C-0.492472 332.076 0.0862563 330.8 0.77148 330.148C2.21458 328.777 5.54144 329.03 8.68265 330.749C9.66936 331.368 10.5561 332.133 11.3123 333.02C12.613 334.607 14.2687 335.864 16.1447 336.689C18.0208 337.514 20.0645 337.884 22.1098 337.769C25.7037 337.786 27.6723 338.283 28.6919 339.432C29.849 340.736 29.6308 342.687 29.3288 345.389C29.2245 346.323 29.1062 347.382 29.0343 348.526C28.8447 352.762 30.1277 356.932 32.6639 360.324C35.0648 363.191 38.0228 369.139 36.746 372.799C36.4747 373.56 35.9988 374.231 35.371 374.737C34.7432 375.244 33.988 375.567 33.1888 375.67C32.5301 375.809 31.8593 375.882 31.1863 375.887C26.7777 375.887 25.1643 372.221 23.0313 367.374ZM8.3071 331.439C5.50208 329.903 2.49419 329.593 1.31029 330.719C0.410621 331.573 0.834978 333.038 1.34936 334.116C2.18362 335.784 3.30674 337.29 4.66635 338.563C6.18867 340.121 7.39084 341.351 6.78134 343.739C6.66164 344.208 6.52382 344.681 6.3854 345.156C5.41774 348.474 4.50401 351.609 9.56962 353.891C10.7593 354.428 11.8496 354.857 12.8118 355.235C16.8197 356.812 19.4676 357.854 22.306 363.862C22.8342 364.98 23.2987 366.036 23.7479 367.057C26.198 372.625 27.6768 375.986 33.0334 374.9C33.6976 374.819 34.3266 374.556 34.8512 374.14C35.3759 373.723 35.7757 373.17 36.0067 372.54C37.1317 369.314 34.4398 363.666 32.0633 360.828C29.3733 357.294 28.0228 352.917 28.2525 348.477C28.3255 347.314 28.445 346.244 28.5503 345.301C28.8297 342.802 29.0316 340.996 28.1068 339.954C27.2613 339.002 25.4106 338.57 22.1063 338.554C19.9546 338.677 17.8045 338.288 15.8306 337.421C13.8567 336.554 12.1146 335.232 10.7458 333.563C10.0445 332.735 9.22225 332.019 8.3071 331.439Z" fill="#8CC640"/>
<path d="M33.1042 380.422L33.8863 380.38C33.8478 379.643 32.8611 362.275 25.9063 357.191C20.4568 353.484 16.4949 347.959 14.7247 341.598C13.3745 336.858 6.50319 335.591 6.21133 335.54L6.07507 336.313C6.14179 336.325 12.7564 337.547 13.9715 341.814C15.7869 348.344 19.8521 354.017 25.4449 357.826C32.1014 362.691 33.0948 380.245 33.1042 380.422Z" fill="black"/>
<path d="M31.7803 384.328C30.1438 383.51 30.2031 380.225 30.293 375.251C30.4064 368.967 30.5617 360.36 27.2808 352.443C23.7956 344.034 26.9039 341.575 29.91 339.198C33.277 336.536 36.4571 334.022 30.3538 322.671C27.5504 317.458 26.6605 313.932 27.5529 311.575C28.4348 309.245 30.9094 308.337 33.5294 307.375C38.0515 305.716 43.1769 303.835 42.5147 294.238C42.3118 291.296 42.6567 289.486 43.6003 288.544C44.6258 287.52 46.1364 287.631 47.8853 287.759C50.5281 287.953 53.5216 288.173 56.1292 284.761C56.4003 283.909 58.8936 276.3 61.8759 274.997C62.1614 274.862 62.4735 274.792 62.7893 274.794C63.105 274.796 63.4164 274.868 63.7004 275.007C64.5311 275.303 65.2878 275.777 65.9184 276.395C66.549 277.013 67.0384 277.761 67.353 278.587C68.0472 281.06 66.2408 283.849 64.149 287.078C60.862 292.154 57.1361 297.906 61.0004 304.751C66.1096 313.802 63.4109 316.969 59.6761 321.353C56.9652 324.236 54.8613 327.638 53.4899 331.354C52.1858 335.088 54.4102 338.649 56.5613 342.092C59.2596 346.411 62.0498 350.877 56.1752 354.752C46.4623 361.16 36.8701 382.076 36.7743 382.286L36.7348 382.373L36.6596 382.432C35.544 383.524 34.1233 384.248 32.5867 384.51C32.3074 384.513 32.0311 384.451 31.7803 384.328ZM55.7447 354.096C60.9795 350.643 58.6244 346.874 55.8975 342.509C53.7529 339.076 51.3221 335.185 52.7506 331.095C54.1512 327.285 56.3042 323.798 59.0805 320.843C62.74 316.548 65.1576 313.71 60.3188 305.138C56.2204 297.878 60.2525 291.653 63.4922 286.651C65.4803 283.581 67.1971 280.931 66.5991 278.8C66.3103 278.084 65.8721 277.438 65.3139 276.906C64.7556 276.374 64.0903 275.968 63.3626 275.716C63.1796 275.627 62.9789 275.581 62.7756 275.581C62.5723 275.581 62.3716 275.628 62.1889 275.717C59.4219 276.925 56.8811 284.981 56.8558 285.062L56.8355 285.127L56.7944 285.182C53.9202 288.99 50.5426 288.742 47.8281 288.543C46.2061 288.424 44.9252 288.33 44.1531 289.101C43.3928 289.86 43.1125 291.523 43.2961 294.184C43.9989 304.369 38.3431 306.445 33.7984 308.113C31.2453 309.05 29.04 309.859 28.2852 311.853C27.4796 313.982 28.3558 317.301 31.0432 322.299C37.4589 334.23 33.8679 337.069 30.3952 339.815C27.4903 342.112 24.7465 344.282 28.0041 352.142C31.348 360.21 31.1908 368.912 31.0761 375.265C30.9977 379.603 30.9358 383.029 32.1295 383.625C32.828 383.973 34.1642 383.384 36.1018 381.873C36.8784 380.18 46.0653 360.482 55.7447 354.096Z" fill="#8CC640"/>
<path d="M16.4492 293.163C21.3926 291.464 20.3656 301.017 22.4542 308.086C24.5427 315.155 45.6912 311.17 36.8142 328.87C27.9371 346.571 48.041 334.79 42.036 350.236C36.0309 365.682 41.5138 382.202 34.9865 378C28.4592 373.797 31.3195 354.347 24.5312 352.035C17.7428 349.724 16.6352 347.029 23.3563 340.746C30.0775 334.462 5.7445 328.225 11.7496 315.537C17.7547 302.85 10.7379 295.127 16.4492 293.163Z" fill="#8CC640"/>
<path d="M32.7112 376.985C33.3329 374.341 38.6419 351.071 33.688 348.258C29.3222 345.779 29.4297 336.136 30.1109 327.03C30.7137 318.97 20.3899 315.203 19.9501 315.046L19.688 315.786C19.7902 315.823 29.8878 319.511 29.3297 326.972C28.6303 336.323 28.5553 346.246 33.3023 348.941C37.0633 351.077 33.6006 369.779 31.9489 376.805L32.7112 376.985Z" fill="white"/>
<path d="M51.3622 368.698L44.3048 395.548H28.5327L21.4736 368.698H51.3622Z" fill="url(#paint0_linear_5_3157)"/>
<path d="M51.3619 368.699C51.3619 368.699 35.8246 371.624 35.8246 395.548H28.5319L21.4741 368.699H51.3619Z" fill="url(#paint1_linear_5_3157)"/>
<path d="M19.2136 395.199L72.9373 394.949L126.661 394.859L234.107 394.688L341.554 394.857L395.276 394.947L449 395.199L395.276 395.45L341.554 395.54L234.107 395.711L126.661 395.538L72.9373 395.448L19.2136 395.199Z" fill="#1A2E35"/>
<path d="M295.918 107.303V425.198C295.918 434.184 289.207 441.453 280.93 441.453H132.97C124.673 441.453 117.962 434.184 117.962 425.198V107.303C117.962 88.9984 124.673 88.1057 132.97 88.1057H162.613C164.334 88.1057 165.743 90.0676 165.743 92.5004V93.55C165.743 99.2495 168.854 99.2691 172.67 99.2691H241.211C245.065 99.2691 248.157 99.2495 248.157 93.55V92.5004C248.157 90.0676 249.546 88.1058 251.297 88.1058H280.93C289.207 88.1057 295.918 90.5385 295.918 107.303Z" fill="white"/>
<path d="M157.494 95.2456C157.399 95.3407 157.303 95.4357 157.208 95.5308C157.154 95.585 157.1 95.6396 157.046 95.6943C156.683 95.3301 156.253 95.0412 155.779 94.8442C155.305 94.6472 154.797 94.5459 154.284 94.5462C153.771 94.5465 153.264 94.6483 152.79 94.8459C152.316 95.0434 151.886 95.3328 151.525 95.6974C151.474 95.644 151.423 95.589 151.37 95.5355C151.276 95.4401 151.182 95.3454 151.087 95.2506L151.079 95.2457V95.2387L151.1 95.2215C151.22 95.1142 151.338 95.0028 151.462 94.9C152.028 94.4424 152.696 94.1303 153.409 93.9907C153.593 93.9571 153.779 93.9397 153.964 93.9169C154.027 93.9092 154.437 93.9078 154.449 93.9087C154.575 93.9182 154.702 93.9236 154.828 93.9373C155.176 93.9766 155.517 94.0585 155.846 94.181C156.084 94.2689 156.314 94.377 156.534 94.5042C156.767 94.6374 156.987 94.792 157.192 94.9659C157.295 95.0541 157.394 95.1475 157.494 95.2387L157.494 95.2456Z" fill="white"/>
<path d="M152.433 96.5966C152.282 96.4461 152.134 96.2985 151.981 96.1464C152.475 95.6418 153.123 95.3158 153.822 95.2196C154.323 95.1443 154.835 95.1883 155.316 95.3482C155.797 95.5082 156.234 95.7794 156.591 96.1401L156.137 96.5938C155.645 96.1018 154.979 95.8258 154.284 95.8263C153.59 95.8269 152.924 96.1039 152.433 96.5966Z" fill="white"/>
<path d="M155.685 97.0495L155.234 97.5004C155.11 97.3754 154.962 97.2761 154.799 97.2085C154.636 97.1409 154.461 97.1063 154.285 97.1065C154.109 97.1067 153.934 97.1418 153.772 97.2099C153.609 97.2779 153.461 97.3775 153.337 97.5029L152.888 97.0525C153.07 96.8667 153.288 96.7191 153.528 96.6183C153.768 96.5174 154.025 96.4654 154.285 96.4651C154.546 96.4648 154.803 96.5163 155.043 96.6166C155.284 96.717 155.501 96.8641 155.685 97.0495Z" fill="white"/>
<path d="M154.286 98.3184C154.51 98.3184 154.692 98.1359 154.692 97.9107C154.692 97.6855 154.51 97.5029 154.286 97.5029C154.061 97.5029 153.879 97.6855 153.879 97.9107C153.879 98.1359 154.061 98.3184 154.286 98.3184Z" fill="white"/>
<path d="M130.749 97.2958C131.4 97.2958 131.928 96.7663 131.928 96.1132C131.928 95.4601 131.4 94.9307 130.749 94.9307C130.098 94.9307 129.57 95.4601 129.57 96.1132C129.57 96.7663 130.098 97.2958 130.749 97.2958Z" fill="white"/>
<path d="M134.464 97.2958C135.115 97.2958 135.643 96.7663 135.643 96.1132C135.643 95.4601 135.115 94.9307 134.464 94.9307C133.812 94.9307 133.284 95.4601 133.284 96.1132C133.284 96.7663 133.812 97.2958 134.464 97.2958Z" fill="white"/>
<path d="M138.179 97.2958C138.83 97.2958 139.358 96.7663 139.358 96.1132C139.358 95.4601 138.83 94.9307 138.179 94.9307C137.527 94.9307 136.999 95.4601 136.999 96.1132C136.999 96.7663 137.527 97.2958 138.179 97.2958Z" fill="white"/>
<path d="M141.893 97.2958C142.545 97.2958 143.073 96.7663 143.073 96.1132C143.073 95.4601 142.545 94.9307 141.893 94.9307C141.242 94.9307 140.714 95.4601 140.714 96.1132C140.714 96.7663 141.242 97.2958 141.893 97.2958Z" fill="white"/>
<path d="M145.608 97.2958C146.259 97.2958 146.787 96.7663 146.787 96.1132C146.787 95.4601 146.259 94.9307 145.608 94.9307C144.957 94.9307 144.429 95.4601 144.429 96.1132C144.429 96.7663 144.957 97.2958 145.608 97.2958Z" fill="white"/>
<path d="M282.572 98.6945H272.971V94.2351H282.572V98.6945ZM273.46 98.204H282.083V94.7256H273.46V98.204Z" fill="white"/>
<path d="M279.957 94.9927H273.767V97.9373H279.957V94.9927Z" fill="white"/>
<path d="M283.432 95.2722H282.578V97.6576H283.432V95.2722Z" fill="white"/>
<path d="M216.294 92.1503H197.598C197.446 92.1503 197.296 92.1204 197.156 92.0622C197.016 92.004 196.889 91.9187 196.781 91.8112C196.674 91.7036 196.589 91.576 196.531 91.4355C196.473 91.295 196.443 91.1444 196.443 90.9923C196.443 90.8403 196.473 90.6897 196.531 90.5492C196.589 90.4087 196.674 90.2811 196.782 90.1735C196.889 90.066 197.016 89.9807 197.156 89.9225C197.296 89.8644 197.446 89.8344 197.598 89.8345H216.294C216.446 89.8344 216.596 89.8644 216.736 89.9225C216.876 89.9807 217.004 90.066 217.111 90.1735C217.218 90.2811 217.303 90.4087 217.361 90.5492C217.419 90.6897 217.449 90.8403 217.449 90.9923C217.449 91.1444 217.419 91.295 217.361 91.4355C217.303 91.576 217.218 91.7036 217.111 91.8112C217.004 91.9187 216.876 92.004 216.736 92.0622C216.596 92.1204 216.446 92.1503 216.294 92.1503Z" fill="white"/>
<path d="M148.041 197.235C148.05 196.277 148.248 195.33 148.623 194.449C148.997 193.568 149.541 192.77 150.224 192.1C150.907 191.43 151.715 190.902 152.602 190.546C153.488 190.19 154.436 190.013 155.392 190.024C157.036 190.021 158.635 190.569 159.933 191.582C160.054 191.674 160.155 191.788 160.232 191.919C160.308 192.05 160.358 192.195 160.378 192.345C160.399 192.496 160.389 192.649 160.35 192.795C160.311 192.942 160.244 193.08 160.152 193.2C159.96 193.436 159.684 193.587 159.382 193.621C159.08 193.654 158.778 193.568 158.539 193.38C157.637 192.683 156.53 192.304 155.392 192.301C154.727 192.29 154.066 192.413 153.45 192.664C152.834 192.914 152.275 193.287 151.806 193.759C151.334 194.202 150.958 194.737 150.701 195.332C150.444 195.926 150.312 196.567 150.312 197.215C150.312 197.862 150.444 198.503 150.701 199.098C150.958 199.692 151.334 200.227 151.806 200.67C152.275 201.143 152.834 201.515 153.45 201.766C154.066 202.016 154.727 202.139 155.392 202.128C156.352 202.118 157.293 201.856 158.12 201.369V198.632H155.271C154.971 198.629 154.685 198.508 154.472 198.295C154.26 198.083 154.139 197.795 154.136 197.494C154.137 197.345 154.166 197.199 154.224 197.062C154.281 196.925 154.365 196.801 154.471 196.697C154.576 196.593 154.702 196.511 154.839 196.456C154.976 196.401 155.123 196.374 155.271 196.376H159.235C159.385 196.371 159.534 196.397 159.673 196.451C159.813 196.505 159.94 196.587 160.048 196.691C160.156 196.795 160.241 196.92 160.3 197.058C160.359 197.196 160.39 197.344 160.391 197.494V201.908C160.383 202.023 160.363 202.137 160.331 202.247C160.311 202.287 160.311 202.308 160.291 202.348V202.368C160.221 202.565 160.088 202.734 159.913 202.847C158.621 203.857 157.03 204.405 155.391 204.405C154.439 204.419 153.493 204.245 152.608 203.893C151.722 203.54 150.915 203.016 150.232 202.35C149.549 201.683 149.004 200.889 148.628 200.011C148.252 199.133 148.053 198.19 148.041 197.235Z" fill="#A8A8A8"/>
<path d="M163.966 199.412C163.953 198.104 164.457 196.845 165.367 195.909C166.278 194.973 167.522 194.438 168.825 194.419C170.071 194.409 171.271 194.888 172.168 195.754C173.065 196.62 173.588 197.804 173.625 199.052V199.152C173.629 199.213 173.622 199.273 173.606 199.332C173.566 199.572 173.437 199.787 173.245 199.935C173.053 200.084 172.812 200.154 172.57 200.131H166.236C166.331 200.627 166.566 201.084 166.913 201.449C167.425 201.965 168.102 202.283 168.825 202.348C169.552 202.419 170.282 202.244 170.897 201.849C171.095 201.657 171.357 201.546 171.632 201.535C171.908 201.523 172.178 201.614 172.391 201.788C172.477 201.873 172.545 201.974 172.591 202.086C172.637 202.197 172.661 202.317 172.661 202.438C172.661 202.558 172.637 202.678 172.591 202.789C172.545 202.901 172.477 203.002 172.391 203.087C171.42 203.976 170.14 204.449 168.825 204.405C167.523 204.383 166.281 203.846 165.371 202.911C164.461 201.976 163.956 200.718 163.966 199.412ZM166.136 198.433H171.773C171.547 197.827 171.145 197.302 170.62 196.925C170.096 196.548 169.471 196.336 168.825 196.316C168.206 196.319 167.605 196.528 167.118 196.912C166.631 197.295 166.286 197.831 166.136 198.433Z" fill="#A8A8A8"/>
<path d="M180.483 195.517C180.476 195.81 180.356 196.088 180.148 196.294C179.939 196.499 179.66 196.614 179.368 196.616H178.87V202.188C179.015 202.189 179.159 202.218 179.293 202.274C179.428 202.331 179.549 202.413 179.651 202.517C179.753 202.621 179.833 202.745 179.887 202.88C179.941 203.016 179.968 203.161 179.965 203.307C179.967 203.451 179.94 203.595 179.886 203.729C179.832 203.864 179.751 203.986 179.649 204.088C179.547 204.19 179.425 204.271 179.291 204.326C179.158 204.38 179.014 204.407 178.87 204.405C178.284 204.403 177.723 204.169 177.309 203.754C176.895 203.338 176.661 202.776 176.659 202.188V196.616H176.082C175.938 196.616 175.795 196.588 175.662 196.533C175.529 196.478 175.408 196.397 175.306 196.295C175.204 196.193 175.123 196.072 175.069 195.938C175.014 195.805 174.986 195.662 174.986 195.517C174.984 195.373 175.011 195.229 175.065 195.094C175.119 194.96 175.2 194.838 175.302 194.736C175.404 194.633 175.526 194.553 175.66 194.498C175.794 194.444 175.937 194.417 176.082 194.419H176.659V191.523C176.659 191.377 176.688 191.232 176.745 191.098C176.801 190.963 176.883 190.841 176.987 190.739C177.091 190.637 177.214 190.556 177.349 190.502C177.484 190.448 177.629 190.422 177.774 190.424C177.919 190.422 178.062 190.449 178.196 190.503C178.33 190.558 178.451 190.639 178.554 190.741C178.656 190.843 178.736 190.965 178.791 191.1C178.845 191.234 178.872 191.378 178.87 191.523V194.419H179.368C179.661 194.417 179.942 194.532 180.151 194.738C180.36 194.943 180.48 195.224 180.483 195.517Z" fill="#A8A8A8"/>
<path d="M192.124 191.922C192.126 192.065 192.1 192.208 192.048 192.341C191.995 192.474 191.916 192.595 191.816 192.698C191.715 192.8 191.596 192.881 191.464 192.936C191.332 192.992 191.191 193.02 191.048 193.02C190.76 193.017 190.485 192.9 190.284 192.694C190.082 192.488 189.97 192.21 189.972 191.922V191.503C189.972 191.361 189.999 191.221 190.053 191.089C190.107 190.958 190.186 190.839 190.286 190.739C190.386 190.638 190.504 190.559 190.635 190.505C190.766 190.451 190.906 190.423 191.048 190.424C191.189 190.422 191.33 190.448 191.462 190.501C191.594 190.555 191.713 190.634 191.814 190.735C191.914 190.836 191.993 190.955 192.046 191.087C192.1 191.219 192.126 191.361 192.124 191.503V191.922ZM192.124 195.537V203.327C192.126 203.469 192.099 203.61 192.046 203.742C191.993 203.874 191.914 203.994 191.813 204.094C191.713 204.195 191.593 204.274 191.462 204.328C191.33 204.381 191.189 204.407 191.048 204.405C190.906 204.406 190.766 204.378 190.635 204.324C190.505 204.27 190.386 204.191 190.286 204.091C190.186 203.99 190.107 203.871 190.053 203.74C189.999 203.609 189.972 203.469 189.972 203.327V195.537C189.968 195.393 189.993 195.25 190.045 195.116C190.097 194.982 190.176 194.86 190.276 194.758C190.377 194.655 190.497 194.574 190.629 194.519C190.762 194.464 190.904 194.437 191.048 194.438C191.191 194.435 191.335 194.461 191.468 194.516C191.601 194.57 191.722 194.651 191.823 194.754C191.924 194.857 192.003 194.979 192.054 195.114C192.106 195.249 192.13 195.393 192.124 195.537Z" fill="#A8A8A8"/>
<path d="M203.859 198.573V203.346C203.861 203.624 203.754 203.892 203.56 204.091C203.365 204.289 203.1 204.402 202.823 204.405C202.545 204.4 202.279 204.286 202.082 204.089C201.885 203.892 201.773 203.625 201.767 203.346V198.573C201.759 198.03 201.535 197.513 201.147 197.135C200.759 196.757 200.237 196.548 199.695 196.556C199.432 196.555 199.171 196.607 198.928 196.709C198.685 196.81 198.464 196.959 198.279 197.147C198.094 197.335 197.948 197.557 197.849 197.802C197.75 198.047 197.701 198.309 197.704 198.573V203.346C197.708 203.415 197.694 203.484 197.664 203.546C197.611 203.788 197.478 204.005 197.286 204.161C197.094 204.317 196.855 204.403 196.608 204.405C196.469 204.406 196.332 204.379 196.203 204.326C196.075 204.273 195.958 204.195 195.86 204.096C195.762 203.998 195.684 203.881 195.631 203.752C195.578 203.623 195.552 203.485 195.552 203.346V195.477C195.552 195.338 195.578 195.2 195.631 195.071C195.684 194.943 195.762 194.826 195.86 194.727C195.958 194.629 196.075 194.551 196.203 194.498C196.332 194.445 196.469 194.418 196.608 194.419C196.813 194.418 197.013 194.476 197.186 194.586C197.359 194.696 197.497 194.852 197.585 195.038C198.216 194.637 198.948 194.422 199.695 194.419C200.796 194.42 201.851 194.858 202.63 195.636C203.41 196.414 203.852 197.47 203.859 198.573Z" fill="#A8A8A8"/>
<path d="M218.229 195.517C218.222 195.81 218.102 196.088 217.893 196.294C217.685 196.499 217.405 196.614 217.113 196.616H216.616V202.188C216.761 202.189 216.905 202.218 217.039 202.274C217.173 202.331 217.295 202.413 217.397 202.517C217.499 202.621 217.579 202.745 217.633 202.88C217.687 203.016 217.714 203.161 217.711 203.307C217.713 203.451 217.686 203.595 217.632 203.729C217.578 203.864 217.497 203.986 217.395 204.088C217.293 204.19 217.171 204.271 217.037 204.326C216.903 204.38 216.76 204.407 216.616 204.405C216.03 204.403 215.469 204.169 215.055 203.754C214.641 203.338 214.407 202.776 214.405 202.188V196.616H213.828C213.684 196.616 213.541 196.588 213.408 196.533C213.275 196.478 213.154 196.397 213.052 196.295C212.95 196.193 212.869 196.072 212.814 195.938C212.76 195.805 212.732 195.662 212.732 195.517C212.73 195.373 212.757 195.229 212.811 195.094C212.865 194.96 212.946 194.838 213.048 194.736C213.15 194.633 213.272 194.553 213.406 194.498C213.54 194.444 213.683 194.417 213.828 194.419H214.405V191.523C214.405 191.377 214.434 191.232 214.491 191.098C214.547 190.963 214.629 190.841 214.733 190.739C214.837 190.637 214.96 190.556 215.095 190.502C215.23 190.448 215.375 190.422 215.52 190.424C215.664 190.422 215.808 190.449 215.942 190.503C216.076 190.558 216.197 190.639 216.299 190.741C216.402 190.843 216.482 190.965 216.536 191.1C216.591 191.234 216.618 191.378 216.616 191.523V194.419H217.113C217.406 194.417 217.688 194.532 217.897 194.738C218.106 194.943 218.226 195.224 218.229 195.517Z" fill="#A8A8A8"/>
<path d="M222.337 202.947C221.437 202.001 220.943 200.739 220.962 199.432C220.965 198.135 221.456 196.887 222.337 195.937C222.772 195.46 223.301 195.078 223.891 194.817C224.48 194.555 225.118 194.42 225.763 194.419C226.393 194.418 227.017 194.553 227.591 194.815C228.164 195.077 228.676 195.46 229.089 195.937C229.991 196.875 230.491 198.129 230.483 199.432C230.498 200.082 230.383 200.728 230.143 201.332C229.904 201.936 229.545 202.485 229.089 202.947C228.675 203.424 228.164 203.806 227.59 204.068C227.017 204.33 226.393 204.465 225.763 204.465C225.118 204.464 224.481 204.328 223.891 204.067C223.301 203.805 222.772 203.424 222.337 202.947ZM223.134 199.432C223.114 200.201 223.368 200.951 223.851 201.549C224.366 202.038 225.053 202.303 225.763 202.288C226.447 202.292 227.105 202.027 227.596 201.549C228.113 200.968 228.391 200.211 228.372 199.432C228.387 198.665 228.109 197.922 227.596 197.354C227.097 196.887 226.445 196.617 225.763 196.595C225.054 196.605 224.374 196.875 223.851 197.354C223.372 197.938 223.117 198.676 223.134 199.432Z" fill="#A8A8A8"/>
<path d="M237.502 204.405C236.405 204.399 235.355 203.959 234.579 203.181C233.803 202.404 233.365 201.35 233.359 200.251V195.477C233.364 195.198 233.477 194.932 233.674 194.734C233.871 194.537 234.136 194.424 234.415 194.419C234.694 194.421 234.961 194.533 235.159 194.731C235.356 194.929 235.468 195.197 235.47 195.477V200.251C235.468 200.519 235.519 200.785 235.62 201.033C235.721 201.281 235.871 201.506 236.06 201.696C236.249 201.886 236.474 202.036 236.722 202.137C236.969 202.239 237.235 202.29 237.502 202.287C238.048 202.294 238.575 202.084 238.967 201.702C239.359 201.32 239.584 200.798 239.593 200.251V195.477C239.592 195.34 239.618 195.203 239.669 195.075C239.72 194.948 239.796 194.831 239.892 194.733C239.989 194.635 240.103 194.556 240.229 194.502C240.356 194.448 240.492 194.42 240.629 194.419C240.908 194.427 241.174 194.54 241.374 194.736C241.573 194.933 241.691 195.197 241.704 195.477V200.251C241.688 201.358 241.238 202.414 240.452 203.191C239.666 203.969 238.606 204.404 237.502 204.405Z" fill="#A8A8A8"/>
<path d="M245.078 199.432C245.095 198.097 245.636 196.823 246.583 195.885C247.53 194.947 248.806 194.421 250.137 194.419C251.284 194.428 252.397 194.814 253.304 195.517C253.52 195.69 253.662 195.939 253.703 196.213C253.744 196.487 253.679 196.766 253.523 196.995C253.438 197.107 253.332 197.201 253.211 197.272C253.09 197.342 252.956 197.388 252.818 197.407C252.679 197.426 252.538 197.416 252.402 197.38C252.267 197.344 252.14 197.281 252.029 197.195C251.483 196.783 250.82 196.559 250.137 196.556C249.754 196.544 249.373 196.609 249.016 196.748C248.659 196.886 248.333 197.095 248.058 197.363C247.783 197.63 247.564 197.95 247.415 198.304C247.266 198.657 247.189 199.038 247.189 199.422C247.189 199.806 247.266 200.186 247.415 200.539C247.564 200.893 247.783 201.213 248.058 201.48C248.333 201.748 248.659 201.957 249.016 202.096C249.373 202.234 249.754 202.299 250.137 202.288C250.819 202.281 251.482 202.057 252.029 201.648C252.258 201.484 252.542 201.414 252.82 201.455C253.099 201.497 253.351 201.645 253.523 201.869C253.678 202.098 253.742 202.377 253.701 202.65C253.66 202.924 253.519 203.172 253.304 203.346C252.384 204.02 251.277 204.39 250.137 204.405C248.811 204.409 247.538 203.889 246.591 202.958C245.644 202.028 245.1 200.761 245.078 199.432Z" fill="#A8A8A8"/>
<path d="M259.366 203.306C259.365 203.452 259.336 203.597 259.28 203.731C259.223 203.866 259.141 203.988 259.037 204.09C258.933 204.192 258.81 204.273 258.675 204.327C258.54 204.381 258.395 204.407 258.25 204.405C258.01 204.399 257.778 204.316 257.588 204.169C257.399 204.021 257.26 203.817 257.194 203.586C257.17 203.495 257.156 203.401 257.154 203.306V191.522C257.157 191.23 257.275 190.951 257.482 190.745C257.689 190.54 257.968 190.424 258.26 190.424C258.551 190.424 258.831 190.54 259.038 190.745C259.245 190.951 259.363 191.23 259.366 191.522V194.998C260.018 194.632 260.75 194.433 261.497 194.419C262.651 194.422 263.756 194.885 264.57 195.705C265.384 196.525 265.841 197.636 265.839 198.793V203.306C265.839 203.598 265.724 203.877 265.518 204.083C265.313 204.289 265.034 204.405 264.744 204.405C264.453 204.405 264.175 204.289 263.969 204.083C263.764 203.877 263.648 203.598 263.648 203.306V198.793C263.65 198.51 263.596 198.229 263.489 197.967C263.382 197.705 263.224 197.467 263.025 197.267C262.826 197.066 262.59 196.907 262.329 196.798C262.069 196.689 261.789 196.633 261.507 196.633C261.225 196.633 260.945 196.689 260.685 196.798C260.424 196.907 260.187 197.066 259.988 197.267C259.789 197.467 259.632 197.705 259.525 197.967C259.418 198.229 259.364 198.51 259.366 198.793L259.366 203.306Z" fill="#A8A8A8"/>
<path d="M277.829 215.741H136.051V357.172H277.829V215.741Z" fill="white"/>
<path d="M277.829 357.172L136.051 357.236H135.987L135.987 357.171L135.924 215.742L135.924 215.614L136.051 215.614L277.829 215.677H277.893L277.893 215.742L277.829 357.172ZM277.829 357.172L277.765 215.742L277.829 215.806L136.051 215.869L136.179 215.742L136.115 357.171L136.051 357.107L277.829 357.172Z" fill="#DCDCDC"/>
<path d="M149.358 233.413C149.358 233.502 149.323 233.587 149.26 233.651C149.197 233.714 149.112 233.749 149.023 233.749C148.934 233.749 148.849 233.714 148.786 233.651C148.723 233.587 148.687 233.502 148.687 233.413V229.823C148.685 229.768 148.696 229.714 148.72 229.664C148.743 229.615 148.779 229.572 148.823 229.539C148.895 229.488 148.984 229.467 149.071 229.481C149.159 229.495 149.237 229.542 149.29 229.613L151.277 232.37V229.829C151.278 229.741 151.313 229.657 151.375 229.594C151.437 229.532 151.521 229.497 151.609 229.496C151.698 229.496 151.782 229.531 151.846 229.594C151.909 229.656 151.945 229.74 151.947 229.829V233.413C151.947 233.503 151.911 233.588 151.847 233.652C151.784 233.715 151.699 233.751 151.609 233.752C151.561 233.751 151.513 233.74 151.469 233.718C151.426 233.697 151.387 233.666 151.357 233.629C151.345 233.618 151.335 233.605 151.326 233.592L149.358 230.853L149.358 233.413Z" fill="#A8A8A8"/>
<path d="M155.955 232.216V233.425C155.955 233.511 155.92 233.594 155.859 233.655C155.798 233.717 155.716 233.751 155.629 233.752C155.554 233.75 155.481 233.723 155.423 233.675C155.365 233.627 155.325 233.561 155.309 233.487C155.071 233.659 154.785 233.752 154.491 233.752C154.295 233.753 154.102 233.713 153.922 233.636C153.742 233.558 153.58 233.444 153.446 233.301C153.173 233.006 153.023 232.618 153.027 232.216C153.021 231.813 153.171 231.424 153.446 231.13C153.578 230.985 153.74 230.868 153.92 230.789C154.1 230.709 154.294 230.668 154.491 230.668C154.785 230.67 155.072 230.765 155.309 230.94C155.324 230.864 155.363 230.797 155.421 230.747C155.48 230.698 155.553 230.67 155.629 230.668C155.717 230.669 155.8 230.705 155.861 230.767C155.922 230.829 155.956 230.914 155.955 231.001V232.216ZM155.303 232.216C155.308 231.981 155.222 231.753 155.063 231.581C154.991 231.5 154.903 231.436 154.804 231.393C154.706 231.349 154.599 231.327 154.491 231.328C154.383 231.326 154.276 231.347 154.177 231.391C154.079 231.435 153.99 231.499 153.919 231.581C153.762 231.754 153.678 231.982 153.685 232.216C153.68 232.45 153.764 232.677 153.919 232.851C153.993 232.929 154.082 232.99 154.18 233.032C154.279 233.073 154.384 233.094 154.491 233.092C154.598 233.092 154.703 233.071 154.802 233.03C154.9 232.988 154.989 232.928 155.063 232.851C155.22 232.677 155.306 232.45 155.303 232.216Z" fill="#A8A8A8"/>
<path d="M159.73 231.945V233.425C159.729 233.511 159.695 233.594 159.634 233.655C159.573 233.717 159.49 233.751 159.404 233.752C159.317 233.751 159.234 233.716 159.172 233.655C159.111 233.594 159.074 233.512 159.071 233.425V231.945C159.068 231.779 158.999 231.621 158.88 231.505C158.76 231.39 158.601 231.327 158.435 231.329C158.269 231.332 158.112 231.4 157.996 231.519C157.88 231.637 157.816 231.797 157.817 231.963V233.425C157.817 233.437 157.81 233.456 157.81 233.468V233.487C157.804 233.499 157.804 233.511 157.792 233.523V233.555C157.763 233.612 157.719 233.661 157.665 233.695C157.611 233.73 157.549 233.75 157.485 233.752C157.46 233.752 157.441 233.746 157.423 233.746C157.35 233.73 157.283 233.69 157.235 233.632C157.187 233.573 157.16 233.5 157.158 233.425V231.001C157.158 230.958 157.165 230.915 157.181 230.874C157.197 230.834 157.221 230.797 157.252 230.766C157.282 230.735 157.318 230.71 157.358 230.693C157.398 230.677 157.441 230.668 157.485 230.668C157.547 230.666 157.608 230.683 157.66 230.716C157.713 230.748 157.755 230.796 157.78 230.853C157.979 230.733 158.206 230.67 158.438 230.668C158.561 230.802 158.71 230.909 158.876 230.982C159.042 231.056 159.222 231.094 159.404 231.094C159.585 231.094 159.765 231.056 159.931 230.982C160.097 230.909 160.246 230.802 160.369 230.668C160.538 230.669 160.705 230.703 160.861 230.768C161.017 230.834 161.158 230.929 161.277 231.05C161.396 231.17 161.49 231.313 161.553 231.469C161.617 231.626 161.65 231.794 161.649 231.963V233.425C161.648 233.511 161.614 233.594 161.553 233.655C161.492 233.717 161.409 233.751 161.323 233.752C161.236 233.752 161.153 233.717 161.091 233.656C161.029 233.595 160.993 233.512 160.991 233.425V231.963C160.992 231.797 160.927 231.636 160.81 231.517C160.694 231.398 160.535 231.33 160.369 231.328C160.204 231.327 160.045 231.391 159.925 231.507C159.806 231.622 159.736 231.779 159.73 231.945Z" fill="#A8A8A8"/>
<path d="M162.789 232.21C162.785 231.806 162.941 231.417 163.222 231.128C163.504 230.839 163.888 230.674 164.29 230.668C164.675 230.665 165.045 230.813 165.322 231.08C165.6 231.348 165.761 231.713 165.773 232.099V232.13C165.774 232.149 165.772 232.167 165.766 232.185C165.754 232.259 165.714 232.326 165.655 232.372C165.596 232.417 165.521 232.439 165.447 232.432H163.491C163.52 232.585 163.592 232.726 163.7 232.839C163.858 232.998 164.067 233.097 164.29 233.117C164.515 233.139 164.74 233.084 164.93 232.962C164.991 232.903 165.072 232.869 165.157 232.865C165.242 232.862 165.325 232.89 165.391 232.944C165.418 232.97 165.439 233.001 165.453 233.036C165.467 233.07 165.475 233.107 165.475 233.144C165.475 233.182 165.467 233.218 165.453 233.253C165.439 233.287 165.418 233.318 165.391 233.345C165.091 233.619 164.696 233.766 164.29 233.752C163.888 233.745 163.505 233.579 163.224 233.29C162.943 233.002 162.787 232.613 162.789 232.21ZM163.46 231.908H165.201C165.131 231.721 165.007 231.558 164.845 231.442C164.683 231.326 164.49 231.26 164.29 231.254C164.099 231.255 163.914 231.32 163.763 231.438C163.613 231.557 163.506 231.722 163.46 231.908Z" fill="#A8A8A8"/>
<path opacity="0.2" d="M265.839 237.492H148.041V247.431H265.839V237.492Z" fill="#1B144E"/>
<path d="M148.681 260.328V256.688C148.681 256.644 148.689 256.599 148.706 256.558C148.723 256.516 148.748 256.479 148.779 256.447C148.811 256.415 148.848 256.39 148.89 256.374C148.931 256.357 148.975 256.349 149.02 256.349H151.031C151.121 256.35 151.206 256.386 151.269 256.449C151.333 256.513 151.368 256.599 151.369 256.688C151.369 256.779 151.333 256.865 151.27 256.93C151.207 256.994 151.121 257.032 151.031 257.034H149.364V258.163H150.797C150.887 258.163 150.973 258.2 151.037 258.264C151.1 258.328 151.135 258.415 151.135 258.505C151.135 258.595 151.1 258.682 151.037 258.746C150.973 258.81 150.887 258.846 150.797 258.847H149.364V259.982H151.031C151.121 259.983 151.207 260.019 151.271 260.084C151.334 260.148 151.369 260.234 151.369 260.325C151.369 260.415 151.334 260.502 151.271 260.566C151.207 260.63 151.121 260.666 151.031 260.667H149.038C149.026 260.667 149.026 260.661 149.026 260.661L149.02 260.667C148.975 260.667 148.931 260.659 148.89 260.642C148.849 260.625 148.812 260.6 148.78 260.568C148.749 260.536 148.724 260.499 148.707 260.458C148.69 260.416 148.681 260.372 148.681 260.328Z" fill="#A8A8A8"/>
<path d="M154.83 258.859V260.34C154.83 260.426 154.795 260.509 154.734 260.57C154.673 260.632 154.591 260.666 154.504 260.667C154.417 260.666 154.335 260.631 154.273 260.57C154.211 260.509 154.175 260.426 154.172 260.34V258.859C154.168 258.693 154.099 258.535 153.98 258.42C153.861 258.305 153.701 258.242 153.535 258.244C153.37 258.246 153.212 258.314 153.096 258.433C152.98 258.552 152.916 258.712 152.917 258.878V260.34C152.917 260.353 152.911 260.371 152.911 260.384V260.402C152.905 260.414 152.905 260.427 152.893 260.439V260.47C152.864 260.527 152.82 260.576 152.766 260.611C152.712 260.645 152.649 260.665 152.585 260.667C152.56 260.667 152.542 260.661 152.523 260.661C152.45 260.645 152.383 260.605 152.335 260.546C152.288 260.488 152.261 260.415 152.259 260.34V257.916C152.258 257.873 152.266 257.829 152.282 257.789C152.298 257.749 152.322 257.712 152.352 257.681C152.383 257.65 152.419 257.625 152.459 257.608C152.499 257.591 152.542 257.583 152.585 257.583C152.647 257.581 152.708 257.597 152.761 257.63C152.814 257.663 152.855 257.711 152.881 257.768C153.079 257.648 153.307 257.584 153.539 257.583C153.661 257.717 153.811 257.824 153.977 257.897C154.143 257.97 154.323 258.008 154.504 258.008C154.686 258.008 154.865 257.97 155.032 257.897C155.198 257.824 155.347 257.717 155.47 257.583C155.639 257.584 155.806 257.618 155.961 257.683C156.117 257.749 156.258 257.844 156.377 257.965C156.496 258.085 156.59 258.227 156.654 258.384C156.718 258.541 156.75 258.709 156.749 258.878V260.34C156.749 260.426 156.714 260.509 156.654 260.57C156.593 260.632 156.51 260.667 156.424 260.667C156.337 260.667 156.253 260.632 156.191 260.571C156.129 260.51 156.093 260.427 156.091 260.34V258.878C156.092 258.711 156.027 258.551 155.911 258.432C155.795 258.313 155.636 258.245 155.47 258.243C155.304 258.242 155.145 258.306 155.026 258.421C154.906 258.536 154.836 258.693 154.83 258.859Z" fill="#A8A8A8"/>
<path d="M160.707 259.131V260.34C160.707 260.426 160.672 260.509 160.611 260.57C160.55 260.632 160.468 260.666 160.381 260.667C160.306 260.665 160.233 260.638 160.175 260.59C160.117 260.542 160.077 260.476 160.061 260.402C159.823 260.574 159.537 260.667 159.243 260.667C159.047 260.668 158.854 260.628 158.674 260.551C158.494 260.473 158.332 260.359 158.198 260.216C157.925 259.921 157.775 259.533 157.779 259.131C157.773 258.728 157.923 258.339 158.198 258.045C158.33 257.9 158.492 257.783 158.672 257.704C158.852 257.624 159.047 257.583 159.243 257.583C159.538 257.585 159.824 257.68 160.061 257.854C160.076 257.779 160.115 257.711 160.174 257.662C160.232 257.613 160.305 257.585 160.381 257.583C160.469 257.584 160.552 257.619 160.613 257.682C160.674 257.744 160.708 257.828 160.707 257.916V259.131ZM160.055 259.131C160.06 258.896 159.974 258.668 159.815 258.496C159.743 258.415 159.655 258.351 159.556 258.308C159.458 258.264 159.351 258.242 159.243 258.243C159.135 258.241 159.028 258.262 158.929 258.306C158.831 258.35 158.743 258.414 158.671 258.496C158.514 258.669 158.43 258.897 158.437 259.131C158.432 259.365 158.516 259.592 158.671 259.766C158.745 259.844 158.834 259.905 158.932 259.947C159.031 259.988 159.137 260.009 159.243 260.007C159.35 260.007 159.455 259.986 159.554 259.945C159.652 259.904 159.741 259.843 159.815 259.766C159.972 259.592 160.058 259.365 160.055 259.131Z" fill="#A8A8A8"/>
<path d="M162.581 256.812C162.581 256.856 162.573 256.9 162.557 256.941C162.541 256.983 162.516 257.02 162.485 257.052C162.454 257.083 162.418 257.108 162.377 257.125C162.336 257.142 162.292 257.151 162.248 257.151C162.159 257.15 162.075 257.114 162.012 257.05C161.95 256.987 161.916 256.901 161.916 256.812V256.682C161.916 256.638 161.924 256.595 161.941 256.555C161.958 256.514 161.982 256.477 162.013 256.446C162.044 256.415 162.081 256.391 162.121 256.374C162.161 256.358 162.205 256.349 162.248 256.349C162.292 256.348 162.336 256.357 162.376 256.373C162.417 256.39 162.454 256.414 162.485 256.445C162.516 256.476 162.54 256.513 162.557 256.554C162.573 256.595 162.581 256.638 162.581 256.682V256.812ZM162.581 257.928V260.334C162.581 260.378 162.573 260.421 162.557 260.462C162.54 260.503 162.516 260.54 162.485 260.571C162.454 260.602 162.417 260.627 162.376 260.643C162.336 260.66 162.292 260.668 162.248 260.667C162.205 260.667 162.161 260.659 162.121 260.642C162.08 260.625 162.044 260.601 162.013 260.57C161.982 260.539 161.958 260.502 161.941 260.461C161.924 260.421 161.916 260.377 161.916 260.334V257.928C161.915 257.884 161.922 257.84 161.939 257.798C161.955 257.757 161.979 257.719 162.01 257.688C162.041 257.656 162.078 257.631 162.119 257.614C162.16 257.597 162.204 257.588 162.248 257.589C162.293 257.588 162.337 257.596 162.378 257.613C162.419 257.629 162.457 257.655 162.488 257.686C162.519 257.718 162.543 257.756 162.559 257.798C162.575 257.839 162.582 257.884 162.581 257.928Z" fill="#A8A8A8"/>
<path d="M163.89 256.349C163.98 256.349 164.067 256.384 164.132 256.447C164.197 256.511 164.233 256.597 164.235 256.688V260.328C164.234 260.418 164.197 260.504 164.134 260.568C164.07 260.631 163.983 260.667 163.893 260.667C163.803 260.667 163.717 260.631 163.653 260.568C163.589 260.504 163.553 260.418 163.552 260.328V256.688C163.553 256.599 163.588 256.513 163.652 256.449C163.715 256.386 163.8 256.35 163.89 256.349Z" fill="#A8A8A8"/>
<path d="M169.485 259.131V260.34C169.485 260.426 169.45 260.509 169.39 260.57C169.329 260.632 169.246 260.666 169.16 260.667C169.084 260.665 169.012 260.638 168.954 260.59C168.895 260.542 168.855 260.476 168.839 260.402C168.601 260.574 168.315 260.667 168.022 260.667C167.826 260.668 167.632 260.628 167.452 260.551C167.272 260.473 167.11 260.359 166.976 260.216C166.704 259.921 166.554 259.533 166.558 259.131C166.552 258.728 166.702 258.339 166.976 258.045C167.109 257.9 167.27 257.783 167.45 257.704C167.63 257.624 167.825 257.583 168.022 257.583C168.316 257.585 168.602 257.68 168.839 257.854C168.854 257.779 168.894 257.711 168.952 257.662C169.01 257.613 169.083 257.585 169.16 257.583C169.247 257.584 169.33 257.619 169.391 257.682C169.452 257.744 169.486 257.828 169.485 257.916V259.131ZM168.833 259.131C168.838 258.896 168.752 258.668 168.594 258.496C168.522 258.415 168.433 258.351 168.335 258.308C168.236 258.264 168.129 258.242 168.022 258.243C167.914 258.241 167.806 258.262 167.708 258.306C167.609 258.35 167.521 258.414 167.449 258.496C167.292 258.669 167.208 258.897 167.216 259.131C167.211 259.365 167.294 259.592 167.449 259.766C167.523 259.844 167.612 259.905 167.71 259.947C167.809 259.988 167.915 260.009 168.022 260.007C168.128 260.007 168.234 259.986 168.332 259.945C168.43 259.904 168.519 259.843 168.594 259.766C168.75 259.592 168.836 259.365 168.833 259.131Z" fill="#A8A8A8"/>
<path d="M173.475 260.334C173.474 260.422 173.439 260.506 173.377 260.569C173.315 260.631 173.231 260.666 173.143 260.667C173.066 260.668 172.992 260.641 172.932 260.593C172.873 260.544 172.832 260.477 172.817 260.402C172.57 260.572 172.279 260.664 171.98 260.667C171.58 260.656 171.2 260.488 170.921 260.2C170.642 259.912 170.485 259.527 170.485 259.125C170.485 258.723 170.642 258.338 170.921 258.05C171.2 257.762 171.58 257.594 171.98 257.583C172.275 257.584 172.562 257.674 172.805 257.842V256.682C172.805 256.593 172.84 256.507 172.903 256.444C172.966 256.381 173.051 256.346 173.14 256.346C173.229 256.346 173.314 256.381 173.377 256.444C173.44 256.507 173.475 256.593 173.475 256.682L173.475 260.334ZM171.98 258.255C171.872 258.255 171.764 258.278 171.665 258.321C171.565 258.365 171.476 258.428 171.402 258.508C171.244 258.674 171.156 258.895 171.156 259.125C171.156 259.354 171.244 259.575 171.402 259.741C171.476 259.821 171.565 259.884 171.665 259.928C171.764 259.971 171.872 259.994 171.98 259.995C172.089 259.995 172.196 259.972 172.296 259.929C172.395 259.885 172.485 259.821 172.558 259.741C172.716 259.575 172.805 259.354 172.805 259.125C172.805 258.895 172.716 258.674 172.558 258.508C172.485 258.428 172.395 258.364 172.296 258.321C172.196 258.277 172.089 258.255 171.98 258.255Z" fill="#A8A8A8"/>
<path d="M176.64 257.91C176.64 257.996 176.605 258.079 176.545 258.14C176.484 258.201 176.401 258.236 176.315 258.237C176.182 258.233 176.052 258.274 175.946 258.354C175.83 258.43 175.734 258.531 175.663 258.65C175.553 258.809 175.468 258.983 175.411 259.168V260.34C175.408 260.428 175.372 260.512 175.308 260.573C175.245 260.634 175.16 260.668 175.072 260.667C174.986 260.667 174.903 260.632 174.842 260.571C174.781 260.509 174.747 260.426 174.746 260.34V257.91C174.747 257.824 174.782 257.742 174.843 257.682C174.904 257.621 174.987 257.588 175.072 257.589C175.159 257.587 175.244 257.619 175.307 257.679C175.371 257.739 175.408 257.822 175.411 257.91V257.953C175.449 257.907 175.492 257.866 175.539 257.829C175.767 257.671 176.038 257.588 176.315 257.589C176.357 257.588 176.4 257.596 176.439 257.611C176.479 257.627 176.515 257.651 176.545 257.681C176.575 257.71 176.599 257.746 176.616 257.785C176.632 257.825 176.641 257.867 176.64 257.91Z" fill="#A8A8A8"/>
<path d="M176.922 259.125C176.918 258.721 177.073 258.332 177.355 258.043C177.636 257.754 178.02 257.589 178.423 257.583C178.807 257.58 179.178 257.728 179.455 257.995C179.732 258.263 179.893 258.628 179.905 259.014V259.044C179.906 259.063 179.904 259.082 179.899 259.1C179.886 259.174 179.846 259.241 179.787 259.286C179.728 259.332 179.653 259.354 179.579 259.347H177.623C177.652 259.5 177.725 259.641 177.832 259.754C177.991 259.913 178.2 260.012 178.423 260.032C178.647 260.054 178.872 259.999 179.062 259.878C179.124 259.818 179.205 259.784 179.29 259.78C179.375 259.777 179.458 259.805 179.524 259.859C179.55 259.885 179.571 259.916 179.586 259.95C179.6 259.985 179.607 260.022 179.607 260.059C179.607 260.096 179.6 260.133 179.586 260.167C179.571 260.202 179.55 260.233 179.524 260.259C179.224 260.534 178.829 260.681 178.423 260.667C178.02 260.66 177.637 260.494 177.356 260.206C177.075 259.917 176.919 259.528 176.922 259.125ZM177.592 258.823H179.333C179.263 258.636 179.139 258.473 178.977 258.357C178.815 258.24 178.622 258.175 178.423 258.168C178.232 258.169 178.046 258.234 177.896 258.353C177.745 258.471 177.638 258.636 177.592 258.823Z" fill="#A8A8A8"/>
<path d="M180.734 259.784C180.76 259.75 180.793 259.721 180.831 259.7C180.869 259.679 180.911 259.665 180.954 259.661C180.997 259.656 181.041 259.66 181.082 259.673C181.123 259.686 181.162 259.707 181.195 259.735C181.384 259.898 181.623 259.994 181.872 260.007C182.019 260.006 182.164 259.966 182.29 259.89C182.321 259.869 182.347 259.842 182.366 259.81C182.385 259.777 182.397 259.742 182.401 259.704C182.402 259.682 182.396 259.661 182.383 259.643C182.364 259.611 182.336 259.585 182.303 259.569C182.15 259.481 181.983 259.423 181.81 259.396H181.804C181.62 259.364 181.44 259.31 181.269 259.236C181.097 259.158 180.951 259.034 180.845 258.878C180.775 258.76 180.739 258.626 180.74 258.49C180.744 258.356 180.779 258.225 180.842 258.108C180.905 257.99 180.994 257.888 181.103 257.811C181.326 257.659 181.59 257.58 181.859 257.583C182.195 257.595 182.518 257.714 182.782 257.922C182.854 257.971 182.904 258.046 182.922 258.131C182.94 258.216 182.925 258.304 182.88 258.378C182.856 258.414 182.825 258.445 182.789 258.469C182.754 258.493 182.713 258.509 182.671 258.517C182.629 258.525 182.585 258.525 182.543 258.516C182.501 258.507 182.461 258.489 182.426 258.465C182.263 258.334 182.066 258.255 181.859 258.237C181.728 258.234 181.599 258.272 181.49 258.347C181.464 258.361 181.441 258.382 181.424 258.406C181.407 258.431 181.396 258.46 181.392 258.49C181.39 258.507 181.394 258.525 181.404 258.539C181.42 258.566 181.444 258.587 181.472 258.6C181.611 258.678 181.763 258.728 181.921 258.749L181.927 258.755H181.933C182.131 258.788 182.323 258.848 182.505 258.933C182.684 259.008 182.837 259.135 182.942 259.298C183.017 259.42 183.057 259.561 183.059 259.704C183.056 259.846 183.019 259.985 182.952 260.11C182.884 260.234 182.788 260.341 182.671 260.421C182.436 260.582 182.157 260.668 181.872 260.667C181.469 260.653 181.084 260.503 180.777 260.241C180.712 260.186 180.671 260.107 180.663 260.022C180.655 259.936 180.68 259.851 180.734 259.784Z" fill="#A8A8A8"/>
<path d="M183.697 259.784C183.723 259.75 183.756 259.721 183.794 259.7C183.832 259.679 183.874 259.665 183.917 259.661C183.96 259.656 184.004 259.66 184.045 259.673C184.087 259.686 184.125 259.707 184.158 259.735C184.348 259.899 184.585 259.994 184.835 260.007C184.982 260.006 185.126 259.966 185.252 259.89C185.284 259.869 185.31 259.842 185.329 259.81C185.348 259.778 185.36 259.742 185.363 259.704C185.365 259.682 185.358 259.661 185.345 259.643C185.339 259.624 185.314 259.6 185.265 259.569C185.113 259.481 184.946 259.423 184.773 259.396H184.767C184.583 259.364 184.403 259.31 184.231 259.236C184.06 259.158 183.913 259.034 183.808 258.878C183.738 258.76 183.701 258.626 183.703 258.49C183.707 258.356 183.742 258.225 183.805 258.108C183.868 257.99 183.957 257.888 184.065 257.811C184.288 257.659 184.552 257.58 184.822 257.583C185.158 257.595 185.481 257.714 185.745 257.922C185.816 257.971 185.866 258.046 185.884 258.131C185.903 258.216 185.888 258.304 185.843 258.378C185.819 258.414 185.788 258.445 185.752 258.469C185.716 258.493 185.676 258.509 185.634 258.517C185.591 258.525 185.548 258.525 185.506 258.516C185.464 258.507 185.424 258.489 185.388 258.465C185.226 258.334 185.029 258.255 184.822 258.237C184.69 258.234 184.561 258.272 184.453 258.347C184.426 258.361 184.404 258.382 184.386 258.406C184.369 258.431 184.358 258.46 184.354 258.49C184.353 258.498 184.353 258.507 184.355 258.516C184.358 258.524 184.362 258.532 184.367 258.539C184.383 258.566 184.407 258.587 184.435 258.6C184.574 258.678 184.726 258.728 184.884 258.749L184.89 258.755H184.896C185.094 258.788 185.286 258.848 185.468 258.933C185.647 259.008 185.799 259.135 185.905 259.298C185.98 259.42 186.02 259.561 186.022 259.704C186.019 259.846 185.982 259.985 185.914 260.11C185.847 260.234 185.751 260.341 185.634 260.421C185.399 260.582 185.12 260.668 184.835 260.667C184.432 260.653 184.046 260.503 183.74 260.241C183.674 260.186 183.633 260.107 183.625 260.022C183.617 259.936 183.643 259.851 183.697 259.784Z" fill="#A8A8A8"/>
<path opacity="0.2" d="M265.839 264.407H148.041V274.346H265.839V264.407Z" fill="#1B144E"/>
<path d="M151.677 283.844L150.416 285.576V287.242C150.417 287.287 150.408 287.331 150.391 287.373C150.374 287.414 150.35 287.452 150.318 287.483C150.286 287.515 150.249 287.54 150.207 287.557C150.166 287.573 150.122 287.582 150.077 287.581C149.988 287.58 149.902 287.544 149.839 287.481C149.776 287.418 149.74 287.332 149.739 287.242V285.576L148.491 283.844C148.463 283.809 148.443 283.769 148.431 283.726C148.419 283.684 148.417 283.639 148.423 283.595C148.429 283.551 148.444 283.509 148.468 283.471C148.491 283.433 148.522 283.4 148.558 283.375C148.593 283.348 148.634 283.329 148.676 283.318C148.719 283.307 148.764 283.305 148.808 283.312C148.851 283.319 148.893 283.335 148.931 283.358C148.968 283.382 149 283.413 149.026 283.449L150.077 284.892L151.129 283.449C151.156 283.413 151.189 283.382 151.227 283.359C151.265 283.336 151.307 283.32 151.351 283.313C151.395 283.306 151.44 283.308 151.483 283.319C151.526 283.329 151.567 283.349 151.603 283.375C151.674 283.428 151.721 283.507 151.734 283.595C151.748 283.682 151.728 283.771 151.677 283.844Z" fill="#A8A8A8"/>
<path d="M151.933 287.131C151.656 286.839 151.503 286.449 151.509 286.045C151.51 285.645 151.662 285.259 151.933 284.966C152.068 284.819 152.231 284.701 152.413 284.62C152.595 284.54 152.792 284.498 152.991 284.497C153.186 284.497 153.379 284.539 153.556 284.62C153.733 284.701 153.891 284.819 154.019 284.966C154.297 285.255 154.452 285.643 154.449 286.045C154.454 286.246 154.418 286.445 154.344 286.632C154.27 286.819 154.159 286.988 154.019 287.131C153.891 287.278 153.733 287.396 153.556 287.477C153.379 287.558 153.186 287.6 152.991 287.6C152.792 287.599 152.595 287.557 152.413 287.477C152.231 287.396 152.068 287.278 151.933 287.131ZM152.18 286.045C152.173 286.283 152.252 286.515 152.401 286.699C152.56 286.85 152.772 286.932 152.991 286.928C153.203 286.929 153.406 286.847 153.557 286.699C153.717 286.52 153.803 286.286 153.797 286.045C153.802 285.808 153.716 285.579 153.557 285.404C153.403 285.26 153.202 285.176 152.991 285.169C152.773 285.173 152.563 285.256 152.401 285.404C152.253 285.584 152.175 285.812 152.18 286.045Z" fill="#A8A8A8"/>
<path d="M156.612 287.581C156.274 287.579 155.949 287.444 155.71 287.203C155.47 286.963 155.335 286.638 155.333 286.299V284.824C155.335 284.738 155.369 284.655 155.43 284.595C155.491 284.534 155.573 284.499 155.659 284.497C155.745 284.498 155.828 284.532 155.889 284.593C155.95 284.654 155.984 284.737 155.985 284.824V286.299C155.984 286.381 156 286.463 156.031 286.54C156.063 286.617 156.109 286.686 156.167 286.745C156.226 286.803 156.295 286.85 156.372 286.881C156.448 286.913 156.53 286.928 156.612 286.928C156.781 286.93 156.944 286.865 157.065 286.747C157.186 286.629 157.256 286.468 157.258 286.299V284.824C157.258 284.738 157.291 284.655 157.351 284.594C157.411 284.533 157.493 284.498 157.578 284.497C157.664 284.499 157.747 284.534 157.808 284.595C157.87 284.656 157.906 284.737 157.91 284.824V286.299C157.905 286.64 157.767 286.967 157.524 287.207C157.281 287.447 156.953 287.581 156.612 287.581Z" fill="#A8A8A8"/>
<path d="M161.057 284.824C161.056 284.91 161.022 284.993 160.961 285.055C160.9 285.116 160.817 285.151 160.731 285.151C160.598 285.148 160.468 285.189 160.362 285.269C160.247 285.345 160.15 285.446 160.079 285.564C159.969 285.723 159.884 285.898 159.827 286.082V287.254C159.824 287.342 159.788 287.426 159.724 287.487C159.661 287.548 159.576 287.582 159.489 287.581C159.402 287.58 159.32 287.546 159.259 287.485C159.198 287.424 159.163 287.341 159.162 287.254V284.824C159.163 284.738 159.198 284.656 159.259 284.596C159.32 284.536 159.403 284.502 159.489 284.503C159.576 284.501 159.66 284.534 159.724 284.594C159.787 284.654 159.824 284.736 159.827 284.824V284.867C159.865 284.821 159.908 284.78 159.956 284.744C160.184 284.586 160.454 284.502 160.731 284.503C160.773 284.502 160.816 284.51 160.855 284.526C160.895 284.541 160.931 284.565 160.961 284.595C160.992 284.625 161.016 284.66 161.032 284.7C161.048 284.739 161.057 284.781 161.057 284.824Z" fill="#A8A8A8"/>
<path d="M166.277 285.774V287.254C166.276 287.341 166.242 287.424 166.181 287.485C166.12 287.546 166.037 287.581 165.951 287.581C165.864 287.58 165.781 287.545 165.72 287.484C165.658 287.423 165.622 287.341 165.619 287.254V285.774C165.615 285.607 165.546 285.449 165.427 285.334C165.307 285.219 165.147 285.155 164.982 285.158C164.816 285.16 164.658 285.229 164.542 285.348C164.426 285.466 164.362 285.626 164.364 285.793V287.254C164.364 287.266 164.358 287.286 164.358 287.298V287.317C164.352 287.329 164.352 287.341 164.339 287.353V287.384C164.31 287.441 164.266 287.49 164.212 287.525C164.158 287.559 164.096 287.579 164.032 287.581C164.007 287.581 163.988 287.575 163.97 287.575C163.896 287.559 163.83 287.519 163.782 287.461C163.734 287.403 163.707 287.33 163.706 287.254V284.831C163.705 284.787 163.713 284.744 163.729 284.704C163.745 284.663 163.768 284.626 163.799 284.595C163.829 284.564 163.865 284.54 163.905 284.523C163.945 284.506 163.988 284.497 164.032 284.497C164.094 284.495 164.155 284.512 164.208 284.545C164.26 284.578 164.302 284.626 164.327 284.683C164.526 284.563 164.753 284.499 164.985 284.497C165.108 284.631 165.257 284.739 165.423 284.812C165.59 284.885 165.769 284.923 165.951 284.923C166.132 284.923 166.312 284.885 166.478 284.812C166.644 284.739 166.794 284.631 166.916 284.497C167.085 284.498 167.252 284.532 167.408 284.598C167.564 284.663 167.705 284.759 167.824 284.879C167.943 284.999 168.037 285.142 168.101 285.299C168.164 285.456 168.197 285.623 168.196 285.793V287.254C168.195 287.341 168.161 287.424 168.1 287.485C168.039 287.546 167.956 287.58 167.87 287.581C167.783 287.581 167.7 287.546 167.638 287.485C167.576 287.424 167.54 287.342 167.538 287.254V285.793C167.539 285.626 167.474 285.466 167.358 285.347C167.241 285.228 167.083 285.16 166.916 285.158C166.751 285.157 166.592 285.221 166.472 285.336C166.353 285.451 166.283 285.608 166.277 285.774Z" fill="#A8A8A8"/>
<path d="M169.336 286.039C169.333 285.635 169.488 285.246 169.769 284.957C170.051 284.669 170.435 284.503 170.837 284.497C171.222 284.494 171.592 284.642 171.87 284.909C172.147 285.177 172.308 285.542 172.32 285.928V285.959C172.321 285.978 172.319 285.997 172.314 286.015C172.301 286.089 172.261 286.155 172.202 286.201C172.143 286.247 172.068 286.268 171.994 286.261H170.038C170.067 286.414 170.14 286.556 170.247 286.668C170.405 286.828 170.614 286.926 170.837 286.946C171.062 286.968 171.287 286.914 171.477 286.791C171.539 286.732 171.619 286.698 171.704 286.695C171.789 286.691 171.873 286.719 171.938 286.773C171.965 286.8 171.986 286.831 172 286.865C172.015 286.9 172.022 286.937 172.022 286.974C172.022 287.011 172.015 287.048 172 287.082C171.986 287.117 171.965 287.148 171.938 287.174C171.638 287.449 171.243 287.595 170.837 287.581C170.435 287.574 170.052 287.408 169.771 287.119C169.49 286.831 169.334 286.442 169.336 286.039ZM170.007 285.738H171.748C171.678 285.55 171.554 285.388 171.392 285.271C171.23 285.155 171.037 285.089 170.837 285.083C170.646 285.084 170.461 285.149 170.31 285.268C170.16 285.386 170.053 285.551 170.007 285.738Z" fill="#A8A8A8"/>
<path d="M173.148 286.699C173.174 286.665 173.207 286.636 173.245 286.615C173.283 286.593 173.325 286.58 173.368 286.575C173.411 286.571 173.455 286.575 173.496 286.588C173.538 286.601 173.576 286.622 173.609 286.65C173.798 286.813 174.036 286.908 174.285 286.922C174.433 286.921 174.577 286.88 174.704 286.804C174.735 286.784 174.761 286.756 174.78 286.724C174.799 286.692 174.811 286.656 174.814 286.619C174.816 286.597 174.809 286.575 174.796 286.557C174.79 286.539 174.765 286.514 174.716 286.483C174.564 286.396 174.397 286.337 174.224 286.311H174.218C174.034 286.279 173.854 286.225 173.683 286.15C173.511 286.072 173.364 285.949 173.258 285.793C173.189 285.675 173.153 285.541 173.154 285.404C173.158 285.27 173.193 285.14 173.256 285.022C173.319 284.904 173.408 284.803 173.517 284.726C173.74 284.574 174.004 284.494 174.273 284.497C174.609 284.509 174.932 284.628 175.196 284.837C175.267 284.886 175.317 284.96 175.335 285.045C175.354 285.13 175.339 285.218 175.295 285.293C175.27 285.329 175.24 285.359 175.203 285.383C175.167 285.407 175.127 285.423 175.085 285.431C175.042 285.439 174.999 285.439 174.957 285.43C174.914 285.421 174.874 285.403 174.839 285.379C174.677 285.249 174.48 285.17 174.273 285.151C174.142 285.149 174.013 285.187 173.904 285.262C173.878 285.276 173.855 285.296 173.838 285.321C173.821 285.345 173.81 285.374 173.806 285.404C173.804 285.412 173.805 285.421 173.807 285.43C173.809 285.438 173.813 285.446 173.818 285.453C173.834 285.48 173.858 285.501 173.886 285.515C174.025 285.592 174.177 285.643 174.335 285.663L174.341 285.669H174.347C174.545 285.703 174.738 285.763 174.919 285.848C175.098 285.922 175.251 286.049 175.356 286.212C175.431 286.335 175.471 286.475 175.473 286.619C175.47 286.761 175.433 286.899 175.365 287.024C175.298 287.148 175.202 287.255 175.085 287.334C174.85 287.497 174.571 287.583 174.285 287.581C173.883 287.567 173.497 287.417 173.191 287.155C173.126 287.1 173.085 287.021 173.077 286.936C173.069 286.851 173.094 286.766 173.148 286.699Z" fill="#A8A8A8"/>
<path d="M176.111 286.699C176.137 286.665 176.17 286.636 176.208 286.615C176.246 286.593 176.288 286.58 176.331 286.575C176.374 286.571 176.418 286.575 176.459 286.588C176.501 286.601 176.539 286.622 176.572 286.65C176.761 286.813 176.999 286.908 177.248 286.922C177.396 286.921 177.54 286.88 177.667 286.804C177.698 286.784 177.724 286.756 177.743 286.724C177.762 286.692 177.774 286.656 177.777 286.619C177.779 286.597 177.772 286.575 177.759 286.557C177.753 286.539 177.728 286.514 177.68 286.483C177.527 286.396 177.36 286.337 177.187 286.311H177.181C176.997 286.279 176.817 286.225 176.646 286.15C176.474 286.072 176.328 285.949 176.221 285.793C176.152 285.675 176.116 285.541 176.117 285.404C176.121 285.27 176.156 285.14 176.219 285.022C176.282 284.904 176.371 284.803 176.48 284.726C176.703 284.574 176.967 284.494 177.236 284.497C177.572 284.509 177.895 284.628 178.159 284.837C178.231 284.886 178.281 284.96 178.299 285.045C178.317 285.13 178.302 285.219 178.257 285.293C178.233 285.329 178.202 285.359 178.166 285.383C178.13 285.407 178.09 285.423 178.048 285.431C178.005 285.439 177.962 285.439 177.92 285.43C177.878 285.421 177.838 285.403 177.802 285.379C177.64 285.249 177.443 285.17 177.236 285.151C177.105 285.149 176.976 285.187 176.867 285.262C176.841 285.276 176.818 285.296 176.801 285.321C176.784 285.345 176.773 285.374 176.769 285.404C176.767 285.412 176.768 285.421 176.77 285.43C176.772 285.438 176.776 285.446 176.781 285.453C176.797 285.48 176.821 285.501 176.849 285.515C176.988 285.592 177.14 285.643 177.298 285.663L177.304 285.669H177.31C177.508 285.703 177.7 285.763 177.882 285.848C178.061 285.922 178.214 286.049 178.319 286.212C178.394 286.335 178.434 286.475 178.436 286.619C178.433 286.761 178.396 286.9 178.329 287.024C178.261 287.148 178.165 287.255 178.048 287.334C177.813 287.496 177.534 287.582 177.249 287.581C176.846 287.567 176.46 287.417 176.154 287.155C176.089 287.1 176.048 287.021 176.04 286.936C176.032 286.851 176.057 286.766 176.111 286.699Z" fill="#A8A8A8"/>
<path d="M181.885 286.045V287.254C181.884 287.341 181.85 287.424 181.789 287.485C181.727 287.546 181.645 287.581 181.558 287.581C181.483 287.579 181.411 287.552 181.353 287.504C181.295 287.456 181.255 287.39 181.239 287.317C181 287.489 180.714 287.581 180.42 287.581C180.225 287.582 180.031 287.542 179.851 287.465C179.671 287.388 179.509 287.274 179.375 287.131C179.103 286.836 178.953 286.448 178.957 286.045C178.951 285.643 179.101 285.254 179.375 284.96C179.508 284.815 179.669 284.698 179.849 284.619C180.029 284.539 180.224 284.498 180.42 284.497C180.715 284.5 181.001 284.595 181.239 284.769C181.253 284.694 181.293 284.626 181.351 284.577C181.409 284.527 181.482 284.499 181.558 284.497C181.646 284.498 181.729 284.534 181.791 284.596C181.852 284.659 181.886 284.743 181.885 284.831V286.045ZM181.233 286.045C181.238 285.81 181.152 285.583 180.993 285.41C180.921 285.33 180.832 285.266 180.734 285.222C180.635 285.179 180.528 285.157 180.42 285.158C180.313 285.155 180.205 285.177 180.107 285.22C180.008 285.264 179.92 285.329 179.849 285.41C179.692 285.583 179.608 285.811 179.615 286.045C179.61 286.279 179.693 286.506 179.849 286.68C179.922 286.758 180.011 286.819 180.109 286.861C180.208 286.903 180.314 286.923 180.42 286.922C180.527 286.922 180.633 286.901 180.731 286.859C180.829 286.818 180.918 286.757 180.993 286.68C181.15 286.507 181.236 286.28 181.233 286.045Z" fill="#A8A8A8"/>
<path d="M186.053 286.058V287.205C186.052 287.597 185.896 287.973 185.619 288.25C185.343 288.528 184.968 288.684 184.577 288.685C184.352 288.685 184.131 288.632 183.931 288.531C183.891 288.512 183.856 288.485 183.828 288.452C183.799 288.419 183.777 288.381 183.764 288.34C183.75 288.298 183.745 288.255 183.748 288.211C183.752 288.168 183.764 288.126 183.784 288.087C183.822 288.008 183.89 287.947 183.973 287.918C184.056 287.89 184.147 287.895 184.226 287.932C184.334 287.99 184.455 288.02 184.577 288.019C184.766 288.018 184.95 287.953 185.096 287.833C185.243 287.712 185.344 287.545 185.382 287.359C185.099 287.553 184.755 287.637 184.415 287.596C184.075 287.555 183.761 287.392 183.531 287.137C183.251 286.845 183.097 286.456 183.1 286.051C183.101 285.644 183.255 285.253 183.531 284.954C183.666 284.811 183.828 284.697 184.007 284.619C184.187 284.54 184.381 284.499 184.577 284.497C184.872 284.494 185.161 284.585 185.401 284.757C185.418 284.683 185.459 284.616 185.518 284.569C185.578 284.522 185.651 284.497 185.727 284.497C185.77 284.497 185.812 284.505 185.852 284.521C185.892 284.538 185.928 284.562 185.958 284.592C185.988 284.623 186.012 284.659 186.029 284.698C186.045 284.738 186.053 284.781 186.053 284.824L186.053 286.058ZM185.395 286.051C185.395 285.82 185.312 285.597 185.161 285.423C185.089 285.339 184.999 285.272 184.898 285.226C184.797 285.18 184.688 285.157 184.577 285.157C184.469 285.157 184.362 285.181 184.264 285.227C184.166 285.273 184.08 285.34 184.01 285.423C183.851 285.593 183.763 285.818 183.765 286.051C183.759 286.287 183.848 286.516 184.01 286.687C184.081 286.767 184.169 286.831 184.266 286.875C184.364 286.919 184.47 286.941 184.577 286.94C184.687 286.941 184.795 286.92 184.896 286.876C184.997 286.833 185.087 286.768 185.161 286.687C185.315 286.512 185.399 286.285 185.395 286.051Z" fill="#A8A8A8"/>
<path d="M187.145 286.039C187.141 285.635 187.297 285.246 187.578 284.957C187.859 284.669 188.243 284.503 188.646 284.497C189.03 284.494 189.401 284.642 189.678 284.909C189.955 285.177 190.117 285.542 190.128 285.928V285.959C190.129 285.978 190.127 285.997 190.122 286.015C190.11 286.089 190.07 286.155 190.011 286.201C189.951 286.247 189.877 286.268 189.803 286.261H187.846C187.876 286.414 187.948 286.556 188.055 286.668C188.213 286.828 188.422 286.926 188.646 286.946C188.87 286.968 189.095 286.914 189.285 286.791C189.347 286.732 189.427 286.698 189.512 286.695C189.598 286.691 189.681 286.719 189.747 286.773C189.773 286.8 189.794 286.831 189.809 286.865C189.823 286.9 189.83 286.937 189.83 286.974C189.83 287.011 189.823 287.048 189.809 287.082C189.794 287.117 189.773 287.148 189.747 287.174C189.447 287.449 189.052 287.595 188.646 287.581C188.243 287.574 187.86 287.408 187.579 287.119C187.298 286.831 187.142 286.442 187.145 286.039ZM187.815 285.738H189.556C189.486 285.55 189.362 285.388 189.2 285.271C189.038 285.155 188.845 285.089 188.646 285.083C188.454 285.084 188.269 285.149 188.118 285.267C187.968 285.386 187.861 285.551 187.815 285.738Z" fill="#A8A8A8"/>
<path d="M289.637 77.2756H124.243C122.025 77.296 119.834 77.7542 117.793 78.6241C115.752 79.4939 113.902 80.7584 112.348 82.3453C110.795 83.9322 109.568 85.8103 108.739 87.8726C107.909 89.9348 107.493 92.1407 107.514 94.3642V435.753C107.475 440.243 109.215 444.565 112.352 447.769C115.489 450.973 119.765 452.797 124.243 452.842H289.637C294.117 452.798 298.396 450.974 301.536 447.771C304.676 444.567 306.42 440.245 306.386 435.753V94.3642C306.424 89.8715 304.681 85.5476 301.54 82.3432C298.399 79.1388 294.118 77.316 289.637 77.2756ZM295.918 425.198C295.918 434.184 289.207 441.453 280.93 441.453H132.97C124.673 441.453 117.962 434.184 117.962 425.198V107.303C117.962 88.9983 124.673 88.1056 132.97 88.1056H162.613C164.334 88.1056 165.743 90.0675 165.743 92.5003V93.5499C165.743 99.2494 168.854 99.269 172.67 99.269H241.211C245.065 99.269 248.157 99.2494 248.157 93.5499V92.5003C248.157 90.0675 249.546 88.1057 251.297 88.1057H280.931C289.207 88.1057 295.918 90.5385 295.918 107.303L295.918 425.198Z" fill="#1A2E35"/>
<path opacity="0.2" d="M265.839 291.321H148.041V342.056H265.839V291.321Z" fill="#1B144E"/>
<path d="M208.533 168.854C207.412 167.188 206.806 165.227 206.792 163.217C206.792 156.078 214.612 150.288 224.252 150.288C233.892 150.288 241.704 156.077 241.704 163.217C241.704 170.357 233.892 176.147 224.252 176.147C219.968 176.217 215.765 174.968 212.209 172.57L206.195 174.103L208.533 168.854Z" fill="#8CC640"/>
<path d="M213.532 149.245C214.929 147.168 215.684 144.724 215.701 142.218C215.701 133.317 205.952 126.099 193.934 126.099C181.916 126.099 172.176 133.317 172.176 142.218C172.176 151.12 181.916 158.338 193.934 158.338C199.276 158.424 204.515 156.868 208.948 153.878L216.445 155.789L213.532 149.245Z" fill="white"/>
<path d="M213.532 149.245C214.825 147.265 215.545 144.963 215.611 142.597C215.638 140.244 215.004 137.932 213.78 135.924C211.195 131.984 207.293 129.098 202.776 127.785C198.316 126.371 193.581 126.06 188.976 126.879C184.361 127.591 180.075 129.702 176.693 132.93C175.047 134.545 173.817 136.535 173.106 138.731C172.409 140.926 172.379 143.279 173.018 145.491C173.691 147.701 174.893 149.713 176.518 151.351C178.147 153.005 180.046 154.367 182.134 155.377C184.227 156.398 186.451 157.122 188.743 157.528C191.033 157.965 193.368 158.125 195.697 158.004C200.388 157.816 204.937 156.339 208.847 153.734L208.915 153.687L208.991 153.708L216.466 155.707L216.369 155.823L213.532 149.245ZM213.532 149.245L216.522 155.755L216.594 155.912L216.425 155.871L208.905 154.048L209.049 154.021C205.113 156.739 200.502 158.309 195.73 158.556C190.956 158.903 186.174 158.019 181.838 155.988C179.673 154.951 177.702 153.551 176.009 151.846C174.294 150.129 173.024 148.018 172.307 145.697C171.616 143.346 171.64 140.842 172.375 138.504C173.132 136.195 174.434 134.104 176.173 132.41C177.888 130.728 179.876 129.351 182.052 128.338C184.21 127.312 186.502 126.597 188.86 126.215C191.209 125.814 193.596 125.694 195.972 125.859C198.346 126.045 200.687 126.52 202.946 127.272C205.211 128.016 207.346 129.111 209.274 130.517C211.218 131.909 212.851 133.694 214.065 135.757C215.277 137.819 215.872 140.188 215.777 142.58C215.683 144.972 214.903 147.286 213.532 149.245Z" fill="#3853A4"/>
<path d="M228.049 372H185.831C180.739 372 176.612 376.128 176.612 381.22C176.612 386.312 180.739 390.439 185.831 390.439H228.049C233.141 390.439 237.269 386.312 237.269 381.22C237.269 376.128 233.141 372 228.049 372Z" fill="#1B144E"/>
<path d="M192.686 383.079C192.794 382.949 192.949 382.867 193.117 382.851C193.284 382.835 193.452 382.886 193.582 382.993C194.241 383.554 195.063 383.886 195.926 383.94C196.472 383.951 197.008 383.792 197.46 383.484C197.613 383.391 197.741 383.261 197.833 383.107C197.925 382.953 197.978 382.778 197.988 382.599C197.991 382.459 197.952 382.322 197.877 382.205C197.784 382.055 197.658 381.929 197.509 381.836C196.988 381.542 196.419 381.346 195.828 381.257H195.803C195.258 381.165 194.726 381.003 194.22 380.777C193.756 380.574 193.36 380.241 193.079 379.818C192.892 379.515 192.794 379.165 192.797 378.808C192.809 378.453 192.904 378.105 193.075 377.793C193.245 377.481 193.486 377.214 193.779 377.012C194.401 376.578 195.144 376.35 195.902 376.36C196.872 376.41 197.805 376.753 198.577 377.345C198.714 377.438 198.809 377.583 198.841 377.746C198.874 377.91 198.84 378.079 198.748 378.218C198.704 378.289 198.646 378.35 198.578 378.398C198.51 378.445 198.433 378.479 198.352 378.496C198.271 378.513 198.187 378.514 198.105 378.498C198.024 378.482 197.946 378.449 197.877 378.403C197.314 377.945 196.625 377.67 195.902 377.615C195.411 377.607 194.93 377.754 194.527 378.034C194.393 378.116 194.28 378.229 194.199 378.364C194.118 378.499 194.071 378.651 194.061 378.809C194.054 378.93 194.084 379.05 194.147 379.153C194.235 379.281 194.348 379.39 194.478 379.474C194.95 379.752 195.471 379.936 196.012 380.015H196.037C196.62 380.117 197.189 380.29 197.73 380.532C198.227 380.749 198.653 381.103 198.957 381.553C199.15 381.867 199.252 382.229 199.252 382.599C199.24 382.978 199.138 383.349 198.955 383.681C198.771 384.013 198.511 384.296 198.196 384.506C197.533 384.975 196.738 385.22 195.926 385.208C194.773 385.152 193.67 384.72 192.785 383.977C192.657 383.869 192.575 383.715 192.556 383.548C192.538 383.38 192.585 383.213 192.686 383.079Z" fill="white"/>
<path d="M200.581 382.144C200.573 381.338 200.884 380.562 201.445 379.985C202.006 379.409 202.772 379.079 203.576 379.067C204.343 379.061 205.082 379.356 205.635 379.89C206.188 380.424 206.51 381.153 206.533 381.922V381.983C206.535 382.021 206.531 382.059 206.52 382.095C206.495 382.242 206.416 382.375 206.298 382.466C206.18 382.558 206.031 382.601 205.883 382.587H201.98C202.038 382.892 202.183 383.173 202.397 383.398C202.713 383.716 203.13 383.912 203.576 383.952C204.023 383.996 204.473 383.888 204.851 383.645C204.974 383.527 205.135 383.458 205.305 383.451C205.474 383.445 205.64 383.5 205.772 383.608C205.825 383.66 205.867 383.722 205.895 383.791C205.924 383.859 205.939 383.933 205.939 384.007C205.939 384.082 205.924 384.155 205.895 384.224C205.867 384.293 205.825 384.355 205.772 384.407C205.174 384.955 204.385 385.247 203.576 385.22C202.773 385.206 202.008 384.875 201.447 384.299C200.887 383.723 200.576 382.949 200.581 382.144ZM201.919 381.541H205.392C205.252 381.167 205.005 380.844 204.681 380.612C204.358 380.379 203.973 380.249 203.576 380.236C203.194 380.238 202.824 380.367 202.524 380.603C202.224 380.839 202.011 381.169 201.919 381.541Z" fill="white"/>
<path d="M213.604 381.627V384.568C213.605 384.652 213.589 384.736 213.558 384.815C213.526 384.894 213.479 384.965 213.42 385.026C213.361 385.087 213.29 385.135 213.213 385.168C213.135 385.201 213.051 385.219 212.967 385.22C212.795 385.217 212.632 385.147 212.51 385.025C212.389 384.904 212.32 384.739 212.316 384.568V381.627C212.311 381.293 212.174 380.974 211.935 380.741C211.695 380.508 211.374 380.379 211.04 380.384C210.878 380.383 210.717 380.416 210.568 380.478C210.418 380.541 210.282 380.632 210.168 380.748C210.054 380.864 209.963 381.001 209.903 381.152C209.842 381.303 209.811 381.464 209.813 381.627V384.568C209.816 384.61 209.808 384.653 209.788 384.691C209.756 384.84 209.674 384.973 209.556 385.07C209.437 385.166 209.29 385.219 209.138 385.22C209.052 385.22 208.968 385.204 208.888 385.171C208.809 385.138 208.737 385.09 208.677 385.03C208.616 384.969 208.569 384.897 208.536 384.818C208.504 384.738 208.487 384.653 208.487 384.568V379.719C208.487 379.634 208.504 379.549 208.536 379.469C208.569 379.39 208.617 379.318 208.677 379.257C208.738 379.197 208.809 379.149 208.888 379.116C208.968 379.083 209.052 379.067 209.138 379.067C209.264 379.067 209.387 379.103 209.494 379.171C209.6 379.238 209.685 379.335 209.739 379.449C210.129 379.202 210.58 379.069 211.04 379.067C211.718 379.068 212.368 379.338 212.848 379.818C213.328 380.297 213.6 380.947 213.604 381.627Z" fill="white"/>
<path d="M221.328 384.556C221.328 384.72 221.266 384.879 221.156 385.001C221.046 385.123 220.895 385.2 220.732 385.216C220.568 385.233 220.405 385.189 220.272 385.092C220.14 384.995 220.048 384.852 220.014 384.691C219.523 385.03 218.942 385.214 218.345 385.22C217.547 385.197 216.789 384.863 216.232 384.288C215.675 383.714 215.364 382.944 215.364 382.143C215.364 381.342 215.675 380.573 216.232 379.999C216.789 379.424 217.547 379.09 218.345 379.067C218.933 379.069 219.506 379.249 219.99 379.584V377.271C219.992 377.094 220.063 376.925 220.188 376.801C220.314 376.676 220.483 376.607 220.659 376.607C220.835 376.607 221.004 376.676 221.13 376.801C221.255 376.925 221.326 377.094 221.328 377.271L221.328 384.556ZM218.345 380.409C218.129 380.41 217.915 380.455 217.717 380.542C217.518 380.628 217.34 380.755 217.192 380.914C216.877 381.245 216.702 381.686 216.702 382.144C216.702 382.602 216.877 383.043 217.192 383.374C217.34 383.533 217.519 383.659 217.717 383.746C217.915 383.832 218.129 383.877 218.345 383.878C218.562 383.879 218.776 383.834 218.975 383.747C219.174 383.661 219.352 383.534 219.499 383.374C219.814 383.043 219.99 382.602 219.99 382.144C219.99 381.686 219.814 381.245 219.499 380.914C219.352 380.754 219.174 380.627 218.975 380.54C218.777 380.453 218.562 380.408 218.345 380.409Z" fill="white"/>
<path d="M316.806 265.126L299.398 269.556C298.051 268.721 296.452 268.393 294.887 268.632C292.426 269.091 286.252 274.153 286.493 274.888C286.734 275.624 294.177 279.067 295.243 278.787C299.079 277.782 303.03 273.308 303.03 273.308L318.595 270.098L316.806 265.126Z" fill="#FD897B"/>
<path d="M377.376 207.449C373.836 211.226 364.468 210.904 364.468 210.904C363.656 210.991 362.837 210.806 362.139 210.38C361.442 209.953 360.904 209.307 360.609 208.543C363.999 207.702 364.517 205.261 365.042 203.15C365.317 201.845 365.33 200.498 365.08 199.188C364.965 198.456 364.811 197.731 364.618 197.015L375.492 187.522C374.425 193.303 373.318 203.642 377.376 207.449Z" fill="#FD897B"/>
<path opacity="0.2" d="M373.253 193.186C373.313 195.56 372.515 197.876 371.006 199.707C369.497 201.538 367.379 202.761 365.042 203.15C365.317 201.845 365.33 200.498 365.08 199.189L373.253 193.186Z" fill="black"/>
<path d="M374.157 194.731C373.097 196.607 371.453 198.082 369.476 198.93C367.5 199.778 365.3 199.953 363.216 199.427C360.506 198.797 358.137 197.157 356.592 194.838C356.374 194.517 356.174 194.184 355.992 193.841C352.653 187.455 350.845 175.965 357.473 171.079C358.931 169.992 360.643 169.298 362.445 169.062C364.247 168.826 366.079 169.056 367.768 169.731C369.456 170.406 370.944 171.502 372.09 172.917C373.236 174.331 374.002 176.015 374.315 177.81C375.781 185.47 377.002 189.904 374.157 194.731Z" fill="#FD897B"/>
<path d="M362.99 183.32C363.187 183.92 362.951 184.514 362.543 184.617C362.135 184.72 361.691 184.297 361.533 183.685C361.374 183.073 361.581 182.488 361.98 182.388C362.378 182.289 362.828 182.699 362.99 183.32Z" fill="#1A2E35"/>
<path d="M356.249 184.745C356.446 185.344 356.201 185.942 355.802 186.042C355.404 186.141 354.951 185.722 354.792 185.11C354.633 184.498 354.841 183.913 355.239 183.813C355.637 183.713 356.1 184.162 356.249 184.745Z" fill="#1A2E35"/>
<path d="M358.671 184.928C358.484 186.943 358.011 188.921 357.267 190.802C358.436 191.004 359.638 190.734 360.609 190.052L358.671 184.928Z" fill="#FD5652"/>
<path d="M364.99 180.03C364.927 180.056 364.858 180.065 364.79 180.056C364.723 180.047 364.659 180.02 364.605 179.978C364.248 179.677 363.826 179.464 363.372 179.356C362.918 179.248 362.446 179.247 361.992 179.354C361.946 179.369 361.897 179.375 361.849 179.372C361.8 179.368 361.753 179.355 361.709 179.333C361.666 179.312 361.627 179.281 361.595 179.245C361.564 179.208 361.539 179.165 361.524 179.119C361.509 179.072 361.503 179.024 361.506 178.975C361.51 178.927 361.523 178.879 361.545 178.836C361.567 178.792 361.597 178.753 361.634 178.721C361.67 178.69 361.713 178.665 361.759 178.65C362.329 178.504 362.928 178.495 363.502 178.624C364.076 178.754 364.612 179.018 365.065 179.394C365.143 179.453 365.195 179.541 365.208 179.638C365.222 179.736 365.197 179.834 365.138 179.913L365.132 179.92C365.091 179.964 365.043 180.001 364.99 180.03Z" fill="#1A2E35"/>
<path d="M362.037 193.084C362.947 192.985 363.82 192.673 364.587 192.172C365.353 191.671 365.991 190.996 366.449 190.202C366.471 190.155 366.474 190.101 366.457 190.052C366.44 190.002 366.404 189.962 366.358 189.938C366.336 189.927 366.312 189.919 366.287 189.917C366.262 189.914 366.237 189.917 366.213 189.924C366.19 189.931 366.167 189.943 366.148 189.959C366.129 189.975 366.113 189.994 366.101 190.016L366.095 190.029C365.663 190.762 365.066 191.383 364.353 191.844C363.64 192.306 362.829 192.594 361.986 192.686C361.936 192.69 361.889 192.713 361.856 192.752C361.823 192.79 361.807 192.84 361.81 192.89L361.813 192.911C361.817 192.961 361.84 193.008 361.879 193.041C361.917 193.074 361.966 193.09 362.016 193.087L362.037 193.084Z" fill="#1A2E35"/>
<path d="M352.851 182.951C352.791 182.995 352.718 183.019 352.643 183.02C352.595 183.011 352.55 182.992 352.509 182.965C352.469 182.939 352.434 182.904 352.406 182.864C352.379 182.824 352.36 182.778 352.35 182.731C352.34 182.683 352.34 182.634 352.349 182.586L352.351 182.578C352.457 181.995 352.702 181.447 353.064 180.978C353.427 180.51 353.896 180.136 354.433 179.888C354.524 179.852 354.626 179.854 354.716 179.894C354.806 179.933 354.876 180.006 354.912 180.098C354.945 180.19 354.942 180.292 354.903 180.381C354.864 180.471 354.792 180.542 354.702 180.58C354.284 180.788 353.92 181.091 353.639 181.466C353.358 181.84 353.169 182.275 353.086 182.736C353.065 182.787 353.033 182.832 352.992 182.869C352.952 182.906 352.904 182.934 352.851 182.951Z" fill="#1A2E35"/>
<path d="M379.174 183.173C378.77 185.095 377.621 186.779 375.981 187.854C373.799 189.262 371.945 187.487 371.906 185.021C371.892 182.828 372.981 179.388 375.49 178.996C376.037 178.911 376.597 178.965 377.118 179.154C377.638 179.342 378.104 179.659 378.47 180.075C378.837 180.491 379.094 180.992 379.217 181.534C379.34 182.075 379.325 182.639 379.174 183.173Z" fill="#FD897B"/>
<path d="M344.781 213.399C341.034 216.962 338.273 221.439 336.767 226.392C334.887 232.39 333.129 246.555 332.27 254.233C332.103 255.726 331.457 257.124 330.43 258.218C329.403 259.311 328.049 260.04 326.573 260.297L305.533 263.969L307.215 274.693L333.865 272.127C336.719 271.854 339.41 270.664 341.536 268.736C343.663 266.807 345.112 264.242 345.669 261.421C347.296 253.158 349.474 241.18 350.462 231.693C352.144 215.551 350.393 211.728 344.781 213.399Z" fill="#DECBC4"/>
<path opacity="0.1" d="M344.781 213.399C341.034 216.962 338.273 221.439 336.767 226.392C334.887 232.39 333.129 246.555 332.27 254.233C332.103 255.726 331.457 257.124 330.43 258.218C329.403 259.311 328.049 260.04 326.573 260.297L305.533 263.969L307.215 274.693L333.865 272.127C336.719 271.854 339.41 270.664 341.536 268.736C343.663 266.807 345.112 264.242 345.669 261.421C347.296 253.158 349.474 241.18 350.462 231.693C352.144 215.551 350.393 211.728 344.781 213.399Z" fill="black"/>
<path d="M330.198 451.328L321.843 449.61L328.866 430.87L337.222 432.588L330.198 451.328Z" fill="#FD897B"/>
<path d="M322.173 447.077L331.144 450.325C331.291 450.379 331.415 450.482 331.496 450.615C331.577 450.749 331.61 450.907 331.59 451.062L330.672 458.183C330.648 458.356 330.586 458.521 330.489 458.666C330.393 458.811 330.266 458.933 330.116 459.022C329.967 459.111 329.8 459.165 329.627 459.18C329.454 459.196 329.279 459.172 329.117 459.111C326.231 458.012 324.181 457.068 320.536 455.748C318.291 454.935 311.433 452.718 308.333 451.596C305.233 450.473 305.935 447.256 307.305 447.433C313.446 448.251 318.35 448.078 320.763 447.099C321.213 446.91 321.717 446.902 322.173 447.077Z" fill="#263237"/>
<path d="M319.262 447.492C318.746 447.351 318.293 447.037 317.979 446.602C317.884 446.44 317.831 446.256 317.826 446.068C317.821 445.88 317.865 445.694 317.952 445.527C317.986 445.424 318.05 445.333 318.134 445.266C318.219 445.198 318.321 445.157 318.429 445.146C319.399 445.018 321.256 447.352 321.458 447.616C321.483 447.643 321.498 447.677 321.503 447.713C321.507 447.749 321.499 447.785 321.482 447.817C321.464 447.851 321.438 447.878 321.404 447.897C321.371 447.915 321.334 447.923 321.296 447.92C320.604 447.853 319.922 447.71 319.262 447.492ZM318.716 445.559C318.64 445.524 318.556 445.512 318.474 445.524C318.427 445.507 318.346 445.553 318.286 445.691C318.23 445.802 318.201 445.925 318.202 446.05C318.203 446.174 318.235 446.297 318.294 446.407C318.987 447.084 319.91 447.471 320.877 447.491C320.286 446.715 319.553 446.059 318.716 445.559Z" fill="#2D3133"/>
<path d="M321.245 447.912L321.161 447.881C320.549 447.191 319.661 445.028 320.093 444.3C320.166 444.179 320.279 444.087 320.412 444.04C320.545 443.994 320.69 443.994 320.823 444.043C320.962 444.073 321.093 444.133 321.206 444.219C321.32 444.304 321.415 444.413 321.484 444.538C321.81 445.616 321.806 446.769 321.471 447.845C321.46 447.877 321.442 447.905 321.417 447.928C321.392 447.95 321.362 447.966 321.329 447.974C321.295 447.963 321.266 447.941 321.245 447.912ZM320.843 444.37L320.759 444.339C320.533 444.257 320.467 444.382 320.441 444.426C320.174 444.873 320.669 446.447 321.223 447.297C321.477 446.435 321.463 445.517 321.184 444.663C321.109 444.527 320.988 444.423 320.843 444.37Z" fill="#2D3133"/>
<path d="M382.387 451.697L374.297 452.662L372.548 435.159L380.64 434.195L382.387 451.697Z" fill="#FD897B"/>
<path d="M373.405 450.06L382.943 449.937C383.099 449.935 383.251 449.987 383.374 450.084C383.497 450.181 383.583 450.316 383.619 450.469L385.257 457.459C385.296 457.629 385.295 457.805 385.256 457.975C385.217 458.144 385.14 458.303 385.032 458.439C384.923 458.575 384.785 458.685 384.629 458.761C384.472 458.836 384.301 458.875 384.127 458.875C381.04 458.865 378.791 458.704 374.916 458.755C372.529 458.786 365.331 459.13 362.035 459.172C358.74 459.215 358.268 455.956 359.612 455.638C365.648 454.238 370.178 452.346 372.093 450.578C372.448 450.243 372.918 450.058 373.405 450.06Z" fill="#263237"/>
<path d="M370.826 451.476C370.293 451.526 369.759 451.391 369.313 451.095C369.167 450.977 369.053 450.824 368.982 450.65C368.912 450.475 368.887 450.285 368.91 450.099C368.906 449.99 368.934 449.883 368.989 449.79C369.045 449.697 369.126 449.622 369.223 449.574C370.086 449.112 372.643 450.641 372.925 450.818C372.958 450.834 372.984 450.86 373.001 450.892C373.017 450.924 373.023 450.961 373.018 450.997C373.013 451.035 372.998 451.07 372.973 451.099C372.949 451.128 372.916 451.149 372.88 451.159C372.209 451.34 371.52 451.447 370.826 451.476ZM369.637 449.859C369.553 449.853 369.47 449.871 369.398 449.912C369.348 449.913 369.289 449.984 369.28 450.134C369.266 450.258 369.283 450.383 369.328 450.5C369.373 450.616 369.445 450.72 369.539 450.802C370.425 451.191 371.425 451.228 372.337 450.906C371.512 450.387 370.595 450.032 369.637 449.859Z" fill="#2D3133"/>
<path d="M372.83 451.17L372.74 451.171C371.925 450.741 370.335 449.028 370.484 448.195C370.51 448.056 370.583 447.93 370.691 447.84C370.8 447.749 370.936 447.698 371.077 447.697C371.218 447.676 371.361 447.686 371.498 447.726C371.634 447.766 371.761 447.834 371.869 447.927C372.787 448.656 373.007 450.917 373.018 451.027C373.019 451.061 373.011 451.094 372.996 451.124C372.981 451.154 372.958 451.179 372.93 451.198C372.895 451.2 372.86 451.19 372.83 451.17ZM371.211 447.996L371.121 447.997C370.881 448 370.863 448.14 370.854 448.191C370.76 448.703 371.776 450.001 372.593 450.602C372.529 449.706 372.194 448.85 371.632 448.15C371.515 448.049 371.365 447.994 371.211 447.996Z" fill="#2D3133"/>
<path d="M344.763 291.792C344.763 291.792 324.424 391.618 323.71 429.903L337.269 435.985C337.269 435.985 348.313 392.686 351.9 368.361C351.9 368.361 361.413 349.04 363.971 333.297C363.971 333.297 363.438 402.369 370.575 438.864L383.301 437.881C383.301 437.881 396.139 308.251 393.824 287.499L344.763 291.792Z" fill="#2D3133"/>
<path opacity="0.2" d="M361.759 308.113C361.759 308.113 360.252 331.841 362.402 340.554C363.044 338.106 363.587 335.661 363.971 333.297L361.759 308.113Z" fill="black"/>
<path d="M344.781 213.399C344.781 213.399 346.939 209.122 365.893 208.017C384.848 206.913 393.34 209.725 393.34 209.725C393.34 209.725 391.622 249.971 393.823 287.499C393.823 287.499 362.114 298.821 344.763 291.792C344.763 291.792 331.754 243.187 344.781 213.399Z" fill="#DECBC4"/>
<path opacity="0.2" d="M372.689 207.772C370.593 207.799 368.331 207.875 365.894 208.017C364.431 208.102 363.081 208.208 361.812 208.328C361.827 208.357 363.428 211.402 365.894 211.404C367.237 211.406 368.56 211.075 369.745 210.442C370.931 209.808 371.942 208.891 372.689 207.772Z" fill="black"/>
<path opacity="0.3" d="M392.829 260.062L363.971 274.693C363.971 274.693 382.161 275.255 393.042 269.34C392.951 266.209 392.881 263.109 392.829 260.062Z" fill="black"/>
<path opacity="0.1" d="M365.526 219.287L375.785 265.04L373.503 270.962L365.526 219.287Z" fill="black"/>
<path d="M373.576 263.969L356.127 268.235C354.789 267.386 353.193 267.044 351.625 267.268C349.16 267.704 342.939 272.707 343.173 273.445C343.407 274.182 349.187 278.718 350.238 278.383C351.288 278.047 358.021 273.286 358.021 273.286L374.646 271.893L373.576 263.969Z" fill="#FD897B"/>
<path d="M392.215 209.67C392.215 209.67 384.878 211.626 385.924 225.262C386.379 231.193 386.611 237.525 386.728 242.787C386.806 246.314 385.88 249.79 384.058 252.809C382.237 255.827 379.596 258.263 376.444 259.831L362.121 265.703L363.971 274.692C363.971 274.692 384.777 272.787 392.1 266.913C399.423 261.039 401.972 248.518 400.78 238.135C399.125 223.715 399.674 209.083 392.215 209.67Z" fill="#DECBC4"/>
<path opacity="0.1" d="M392.215 209.67C392.215 209.67 384.878 211.626 385.924 225.262C386.379 231.193 386.611 237.525 386.728 242.787C386.806 246.314 385.88 249.79 384.058 252.809C382.237 255.827 379.596 258.263 376.444 259.831L362.121 265.703L363.971 274.692C363.971 274.692 384.777 272.787 392.1 266.913C399.423 261.039 401.972 248.518 400.78 238.135C399.125 223.715 399.674 209.083 392.215 209.67Z" fill="black"/>
<path d="M363.478 263.398L364.697 275.936L361.328 276.26L359.545 264.526L363.478 263.398Z" fill="#F5E2D9"/>
<path d="M309.307 261.701L310.685 274.922L307.311 275.223L305.378 262.84L309.307 261.701Z" fill="#F5E2D9"/>
<path opacity="0.4" d="M381.087 228.95L369.478 229.991L369.644 231.849L381.253 230.807L381.087 228.95Z" fill="#F5E2D9"/>
<path d="M365.893 208.017L369.652 213.038L377.574 207.801V207.296C377.588 206.872 377.502 206.451 377.321 206.068C377.14 205.684 376.87 205.35 376.534 205.093C376.156 204.859 375.726 204.721 375.282 204.692C374.838 204.662 374.394 204.743 373.989 204.926L365.893 208.017Z" fill="#F5E2D9"/>
<path d="M360.609 208.415L361.543 206.874C362.705 205.497 363.633 206.202 363.633 206.202L365.893 208.017L362.599 213.039L360.609 208.415Z" fill="#F5E2D9"/>
<path d="M378.983 182.966C379.51 179.543 377.14 179.074 375.58 179.488C373.951 179.92 372.334 182.373 372.334 182.373C370.82 179.911 369.958 173.676 369.958 173.676C368.028 174.744 365.878 175.349 363.676 175.443C361.474 175.537 359.28 175.118 357.267 174.218C356.486 176.32 355.034 178.105 353.137 179.294C353.137 179.294 350.327 178.004 351.891 171.508C353.665 164.135 364.73 156.991 375.876 164.346C387.023 171.701 380.267 185.347 380.267 185.347C379.002 187.632 377.394 189.707 375.499 191.501C375.684 190.181 375.682 188.842 375.492 187.522C376.399 187.105 377.192 186.472 377.8 185.678C378.409 184.883 378.815 183.953 378.983 182.966Z" fill="#263237"/>
<path d="M356.212 172.166C356.817 172.948 357.523 173.646 358.31 174.244C359.117 174.869 360.002 175.385 360.942 175.78C361.892 176.192 362.896 176.464 363.924 176.588C364.97 176.72 366.029 176.721 367.075 176.592C366.038 176.863 364.97 177.004 363.898 177.012C362.806 177.025 361.717 176.88 360.666 176.582C359.596 176.291 358.568 175.862 357.609 175.305C356.616 174.743 355.704 174.047 354.899 173.237L356.212 172.166Z" fill="#263237"/>
</g>
<defs>
<linearGradient id="paint0_linear_5_3157" x1="23.8246" y1="423.134" x2="36.0454" y2="370.596" gradientUnits="userSpaceOnUse">
<stop stop-color="#C7C2BF"/>
<stop offset="1" stop-color="#FCF4DC"/>
</linearGradient>
<linearGradient id="paint1_linear_5_3157" x1="21.4741" y1="382.123" x2="51.3619" y2="382.123" gradientUnits="userSpaceOnUse">
<stop stop-color="#C7C2BF"/>
<stop offset="1" stop-color="#FCF4DC"/>
</linearGradient>
<clipPath id="clip0_5_3157">
<rect width="449" height="472" fill="white"/>
</clipPath>
</defs>
</svg>
