<svg width="328" height="97" viewBox="0 0 328 97" fill="none" xmlns="http://www.w3.org/2000/svg">
<g clip-path="url(#clip0_6_2)">
<path fill-rule="evenodd" clip-rule="evenodd" d="M117.366 55.1831V71.9384C118.361 79.9015 147.901 76.2877 152.676 75.3335C154.094 75.0503 154.703 75.057 154.96 73.3494C155.321 70.9546 155.157 64.3339 155.157 61.5703C155.157 60.002 153.874 60.2607 152.752 60.2811C149.937 60.2279 137.353 59.9774 135.665 60.3723C135.331 61.8074 135.247 65.2716 135.863 66.5602L144.219 66.5587C147.104 66.531 146.496 66.6519 146.206 70.1535C143.493 70.7876 127.086 70.6667 126.409 70.2601C125.77 69.8765 126.117 58.6945 126.117 57.3782C127.015 57.1375 126.641 56.5726 129.292 56.5726L153.377 56.591C155.37 56.6248 155.156 56.4543 155.156 51.5893C155.156 50.9388 155.091 50.291 155.033 49.9156C154.934 49.2713 155.053 48.7944 154.36 48.7944H123.73C122.063 48.7944 118.963 51.1709 118.184 52.8103C117.712 53.8049 117.365 54.1654 117.365 55.1821L117.366 55.1831Z" fill="#1B144E"/>
<path fill-rule="evenodd" clip-rule="evenodd" d="M156.35 78.9375H164.903C166.582 76.7946 167.777 75.0984 168.483 73.947H185.987C187.141 75.3442 188.322 77.253 189.765 78.9375H198.119C198.954 78.9375 199.194 77.9342 198.965 77.3165C195.683 71.5419 183.811 48.7959 183.003 48.7959C181.313 48.7959 171.998 48.9086 170.912 48.8937C169.425 50.2468 156.569 74.0449 155.532 77.1373C155.323 77.7595 155.458 78.9375 156.351 78.9375H156.35ZM177.37 58.5648L180.385 63.8047L183.399 69.0446H177.37H171.341L174.356 63.8047L177.37 58.5648Z" fill="#1B144E"/>
<path fill-rule="evenodd" clip-rule="evenodd" d="M275.69 49.1949C276.001 50.3647 287.837 62.718 288.237 63.1513C288.464 63.3387 288.194 63.2537 288.618 63.3674C287.945 65.8985 278.45 74.1428 275.598 77.2485C275.192 77.6905 275.292 78.006 275.292 78.7373C275.914 78.7896 275.998 78.9371 276.684 78.9371H286.63C287.263 78.9371 287.732 78.6011 288.143 78.26C288.472 77.9865 288.39 78.0285 288.645 77.7663C290.187 76.1376 294.259 71.3812 295.978 70.5535C297.226 71.3925 299.093 73.688 300.204 74.8956C300.576 75.3002 300.824 75.4954 301.175 75.9164C301.606 76.4316 301.746 76.5438 302.241 77.0426C302.51 77.314 302.543 77.3248 302.742 77.5379L303.942 78.5289C304.414 78.8024 304.172 78.9366 304.729 78.9366C307.413 78.9366 314.049 79.2551 316.266 78.7368C316.661 77.0784 316.054 77.4656 313.129 74.4987L309.752 70.9018C307.732 68.8716 304.231 66.2145 302.94 63.7654C302.884 63.2773 312.605 53.0577 315.203 50.123C315.548 49.7342 315.725 49.7302 315.868 49.1939C315.509 48.9527 315.518 48.7944 315.072 48.7944H303.735C302.914 48.7944 296.513 56.4405 296.195 56.7964C295.72 57.0689 295.911 56.9787 295.183 56.9787C294.449 55.8315 288.831 48.7944 287.824 48.7944H276.486C276.164 48.7944 275.854 49.0341 275.691 49.1939L275.69 49.1949Z" fill="#1B144E"/>
<path fill-rule="evenodd" clip-rule="evenodd" d="M229.346 71.1525C226.031 71.1525 222.716 71.1525 219.401 71.1525C216.065 71.1525 213.293 70.9528 209.854 70.9528V57.1793C209.854 55.1839 209.843 53.1849 209.854 51.1901C209.873 48.1084 210.734 48.8075 203.091 48.7952C199.344 48.7891 200.108 48.1939 200.108 54.9831C200.108 55.9583 199.983 77.1207 200.18 77.8664C200.386 78.651 200.937 78.8805 201.691 78.9445L228.138 78.923C230.011 78.7243 229.548 77.6979 229.545 75.7435L229.346 71.152L229.346 71.1525Z" fill="#1B144E"/>
<path fill-rule="evenodd" clip-rule="evenodd" d="M317.856 49.5939V77.3401C317.856 78.5299 318.659 78.937 319.846 78.937H326.608C327.244 78.937 328.001 78.2426 328.001 77.7391V49.5934C328.001 48.9798 327.418 48.7949 326.807 48.7949H318.652C318.186 48.7949 317.856 49.1263 317.856 49.5934V49.5939Z" fill="#1B144E"/>
<path fill-rule="evenodd" clip-rule="evenodd" d="M229.346 71.1524C228.659 70.2106 226.987 70.5537 224.97 70.5537C221.507 70.5537 212.133 70.8405 210.053 70.354L210.014 57.6186C209.925 57.1874 210.006 57.4209 209.854 57.1797V70.9532C213.293 70.9532 216.065 71.1529 219.401 71.1529C222.716 71.1529 226.031 71.1529 229.346 71.1529V71.1524Z" fill="#1B144E"/>
<path d="M62.7357 94.6221C84.2934 94.6221 101.769 77.0832 101.769 55.448C101.769 33.8128 84.2934 16.2739 62.7357 16.2739C41.178 16.2739 23.702 33.8128 23.702 55.448C23.702 77.0832 41.178 94.6221 62.7357 94.6221Z" fill="#1B144E"/>
<path fill-rule="evenodd" clip-rule="evenodd" d="M48.1909 72.8719V82.2404H45.9531V72.8719H42.4727V48.8527H45.9531V26.9717H48.1909V48.8527H52.2934V72.8719H48.1909Z" fill="#3853A4"/>
<path fill-rule="evenodd" clip-rule="evenodd" d="M61.4925 35.8921H63.7303V42.0488H67.646V70.4219H63.7303V75.6905H61.4925V70.4219H57.8253V42.0488H61.4925V35.8921Z" fill="#F6EB14"/>
<path fill-rule="evenodd" clip-rule="evenodd" d="M74.5456 33.5527H78.2133V26.0977H80.4505V33.5527H84.3667V61.4362H80.4505V66.0902H78.2133V61.4362H74.5456V33.5527Z" fill="#8CC640"/>
<path fill-rule="evenodd" clip-rule="evenodd" d="M21.6071 72.9064C18.8401 76.3143 16.5197 79.6889 18.2507 82.7624C20.515 86.5165 23.6897 86.98 27.0778 86.6727C51.9081 84.4167 87.7696 62.1982 105.518 45.0854C108.702 42.2116 110.037 39.1832 110.239 36.0606C110.455 32.7075 109.056 32.0412 106.015 30.6133C117.901 33.359 113.686 42.3346 106.749 49.9453C93.9945 63.9369 57.3104 83.3708 40.1201 88.7081C33.664 90.7121 15.6552 95.5111 14.3437 85.3099C13.6655 80.0382 17.9027 76.8352 21.6071 72.9069V72.9064Z" fill="#3853A4"/>
<path fill-rule="evenodd" clip-rule="evenodd" d="M100.31 30.5915C104.793 30.044 111.207 30.5602 112.614 35.8637C113.917 40.7737 110.873 45.4426 105.974 50.4044C89.8104 64.1799 74.0888 73.0065 55.7799 82.6346C49.7857 85.7869 20.144 97.3156 15.0546 87.558C13.616 84.801 14.3258 82.0103 15.6802 79.3793C13.2342 82.2868 11.1072 85.371 11.2409 89.6983C12.0523 96.4711 18.2931 97.8805 27.3125 96.5459C46.1797 93.7541 65.4577 85.0515 81.7876 75.4766C92.3564 68.1748 102.018 62.4652 110.898 53.1337C117.511 46.1847 124.747 36.9146 119.642 31.7177C114.173 27.7372 106.377 28.6996 100.31 30.5925V30.5915Z" fill="#1D1752"/>
<path fill-rule="evenodd" clip-rule="evenodd" d="M94.9356 0L96.6538 9.07649L105.129 10.9167L96.6538 12.7569L94.9356 21.8334L93.2168 12.7569L84.7419 10.9167L93.2168 9.07649L94.9356 0Z" fill="#3853A4"/>
<path fill-rule="evenodd" clip-rule="evenodd" d="M11.0271 25.3604L11.8023 29.4551L15.6266 30.2858L11.8023 31.116L11.0271 35.2112L10.2519 31.116L6.42804 30.2858L10.2519 29.4551L11.0271 25.3604Z" fill="#3853A4"/>
<path fill-rule="evenodd" clip-rule="evenodd" d="M7.22261 58.5059L8.44025 64.9371L14.4457 66.241L8.44025 67.545L7.22261 73.9762L6.00549 67.545L0 66.241L6.00549 64.9371L7.22261 58.5059Z" fill="#3853A4"/>
<path fill-rule="evenodd" clip-rule="evenodd" d="M99.0968 79.7212L100.905 84.3573L105.576 84.4868L101.27 86.3065L101.258 91.2852L99.4494 86.6492L94.7779 86.5196L99.085 84.6999L99.0968 79.7212Z" fill="#3853A4"/>
<path d="M123.792 29.3897C126.4 29.3897 128.515 27.2676 128.515 24.6497C128.515 22.0319 126.4 19.9097 123.792 19.9097C121.183 19.9097 119.069 22.0319 119.069 24.6497C119.069 27.2676 121.183 29.3897 123.792 29.3897Z" fill="#8CC640"/>
<path fill-rule="evenodd" clip-rule="evenodd" d="M231.635 78.9375H240.188C241.866 76.7946 243.062 75.0984 243.768 73.947H261.271C262.425 75.3442 263.607 77.253 265.05 78.9375H273.404C274.238 78.9375 274.478 77.9342 274.249 77.3165C270.968 71.5419 259.095 48.7959 258.288 48.7959C256.598 48.7959 247.282 48.9086 246.197 48.8937C244.71 50.2468 231.853 74.0449 230.816 77.1373C230.608 77.7595 230.743 78.9375 231.636 78.9375H231.635ZM252.531 57.7387L255.545 62.9786L258.56 68.2185H252.531H246.502L249.516 62.9786L252.531 57.7387Z" fill="#1B144E"/>
<path fill-rule="evenodd" clip-rule="evenodd" d="M63.3036 21.1396L63.7594 23.3911L66.0073 23.8474L63.7594 24.3038L63.3036 26.5552L62.8479 24.3038L60.5999 23.8474L62.8479 23.3911L63.3036 21.1396Z" fill="#FEFEFE"/>
</g>
<defs>
<clipPath id="clip0_6_2">
<rect width="328" height="97" fill="white"/>
</clipPath>
</defs>
</svg>
