<svg width="200" height="60" viewBox="0 0 200 60" fill="none" xmlns="http://www.w3.org/2000/svg">
<path d="M198.673 52.2633C198.673 53.0091 198.526 53.7476 198.241 54.4366C197.955 55.1256 197.536 55.7515 197.008 56.2787C196.481 56.8058 195.854 57.2237 195.165 57.5086C194.475 57.7935 193.736 57.9397 192.99 57.9389H7.0097C5.50232 57.9405 4.05603 57.3434 2.9889 56.2791C1.92177 55.2148 1.32118 53.7703 1.31921 52.2633V7.0019C1.32118 5.49423 1.92153 4.04897 2.98845 2.98345C4.05536 1.91792 5.50164 1.31924 7.0097 1.31885H192.989C193.735 1.31885 194.474 1.46585 195.164 1.75147C195.854 2.03709 196.48 2.45572 197.008 2.98346C197.536 3.5112 197.954 4.13771 198.24 4.8272C198.525 5.51669 198.672 6.25566 198.672 7.0019L198.673 52.2633Z" fill="white"/>
<path d="M192.99 59.2593H7.00972C5.1528 59.2589 3.37187 58.5221 2.05772 57.2105C0.743567 55.8989 0.00353321 54.1197 0 52.2633L0 7.00341C0.00274704 5.14607 0.742292 3.36564 2.0564 2.05271C3.37051 0.739787 5.15188 0.00156767 7.00972 0L192.989 0C194.846 0.0023499 196.627 0.740821 197.941 2.05358C199.255 3.36634 199.995 5.14631 199.999 7.00341V52.2633C200.001 56.1222 196.852 59.2593 192.99 59.2593Z" fill="#A6A6A6"/>
<path d="M198.673 52.2633C198.673 53.0091 198.526 53.7476 198.241 54.4366C197.955 55.1256 197.536 55.7515 197.008 56.2787C196.481 56.8058 195.854 57.2237 195.165 57.5086C194.475 57.7935 193.736 57.9397 192.99 57.9389H7.0097C5.50232 57.9405 4.05603 57.3434 2.9889 56.2791C1.92177 55.2148 1.32118 53.7703 1.31921 52.2633V7.0019C1.32118 5.49423 1.92153 4.04897 2.98845 2.98345C4.05536 1.91792 5.50164 1.31924 7.0097 1.31885H192.989C193.735 1.31885 194.474 1.46585 195.164 1.75147C195.854 2.03709 196.48 2.45572 197.008 2.98346C197.536 3.5112 197.954 4.13771 198.24 4.8272C198.525 5.51669 198.672 6.25566 198.672 7.0019L198.673 52.2633Z" fill="black"/>
<path d="M44.6582 29.3177C44.6152 24.5416 48.5699 22.218 48.7508 22.1098C46.511 18.8452 43.0395 18.3991 41.8196 18.3636C38.904 18.0568 36.0758 20.1077 34.5905 20.1077C33.0756 20.1077 30.7885 18.3932 28.3234 18.4436C25.1513 18.4925 22.1838 20.3286 20.5563 23.1797C17.1974 28.9932 19.7025 37.5363 22.9205 42.2353C24.5303 44.5382 26.4113 47.1063 28.8734 47.0159C31.2821 46.9181 32.1818 45.4822 35.0886 45.4822C37.9686 45.4822 38.8135 47.0159 41.3245 46.9581C43.9096 46.9181 45.5372 44.6464 47.0906 42.3243C48.9509 39.688 49.6979 37.0887 49.7276 36.9554C49.6683 36.9346 44.7086 35.0408 44.6582 29.3177ZM39.9149 15.2723C41.2104 13.6526 42.0968 11.4491 41.8507 9.21289C39.9756 9.29588 37.6307 10.5095 36.2803 12.0937C35.0856 13.4896 34.0184 15.7777 34.2941 17.9294C36.4004 18.0865 38.563 16.8669 39.9149 15.2723Z" fill="white"/>
<path d="M192.99 0H93.3734L132.392 59.2593H192.99C194.848 59.2577 196.628 58.5199 197.943 57.2076C199.257 55.8954 199.996 54.1157 200 52.2589V7.00341C199.997 5.14619 199.257 3.36599 197.943 2.05315C196.629 0.740304 194.848 0.00195894 192.99 0Z" fill="url(#paint0_linear_5_3321)"/>
<path d="M79.5468 46.6853H76.1805L74.3365 40.8926H67.9271L66.1706 46.6853H62.8933L69.2449 26.9643H73.167L79.5468 46.6853ZM73.7807 38.4623L72.1131 33.3127C71.9367 32.7866 71.6047 31.5478 71.1185 29.5976H71.0592C70.8635 30.4364 70.5508 31.6752 70.1224 33.3127L68.483 38.4623H73.7807ZM95.8489 39.4003C95.8489 41.8188 95.1923 43.7304 93.8775 45.1338C92.7005 46.383 91.2375 47.0069 89.4929 47.0069C87.6089 47.0069 86.2541 46.3356 85.4314 44.99V52.4513H82.2712V37.139C82.2712 35.62 82.2312 34.0626 82.1541 32.4651H84.9334L85.1098 34.719H85.1691C86.223 33.0208 87.8223 32.1717 89.9687 32.1717C91.6466 32.1717 93.0474 32.8341 94.168 34.1604C95.2871 35.4896 95.8489 37.2353 95.8489 39.4003ZM92.6294 39.5159C92.6294 38.1318 92.3181 36.9908 91.6926 36.0913C91.0093 35.1562 90.0917 34.6879 88.9415 34.6879C88.1618 34.6879 87.4533 34.9487 86.8203 35.4629C86.1859 35.9816 85.7709 36.6588 85.5767 37.4976C85.49 37.8112 85.4407 38.1341 85.4299 38.4593V40.8318C85.4299 41.8647 85.7472 42.7375 86.3816 43.4518C87.016 44.1631 87.8401 44.5203 88.854 44.5203C90.0443 44.5203 90.9707 44.0594 91.6333 43.1451C92.2974 42.2278 92.6294 41.0185 92.6294 39.5159ZM112.209 39.4003C112.209 41.8188 111.552 43.7304 110.237 45.1338C109.059 46.383 107.597 47.0069 105.851 47.0069C103.967 47.0069 102.613 46.3356 101.79 44.99V52.4513H98.6297V37.139C98.6297 35.62 98.5896 34.0626 98.5126 32.4651H101.292L101.468 34.719H101.528C102.58 33.0208 104.179 32.1717 106.327 32.1717C108.004 32.1717 109.404 32.8341 110.528 34.1604C111.646 35.4896 112.209 37.2353 112.209 39.4003ZM108.988 39.5159C108.988 38.1318 108.675 36.9908 108.05 36.0913C107.366 35.1562 106.452 34.6879 105.301 34.6879C104.522 34.6879 103.813 34.9487 103.177 35.4629C102.543 35.9816 102.129 36.6588 101.935 37.4976C101.839 37.8888 101.787 38.2074 101.787 38.4593V40.8318C101.787 41.8647 102.106 42.7375 102.737 43.4518C103.371 44.1616 104.196 44.5203 105.212 44.5203C106.404 44.5203 107.331 44.0594 107.992 43.1451C108.656 42.2278 108.988 41.0185 108.988 39.5159ZM130.5 41.1534C130.5 42.8324 129.913 44.1972 128.747 45.2508C127.463 46.4008 125.671 46.9772 123.373 46.9772C121.251 46.9772 119.549 46.5682 118.265 45.7487L118.996 43.1154C120.382 43.9364 121.904 44.3454 123.562 44.3454C124.753 44.3454 125.68 44.0757 126.341 43.5407C127.004 43.0043 127.339 42.287 127.339 41.392C127.339 40.5903 127.061 39.919 126.517 39.3722C125.97 38.8268 125.066 38.3185 123.796 37.8517C120.342 36.564 118.614 34.6805 118.614 32.2028C118.614 30.5846 119.225 29.2597 120.443 28.2239C121.661 27.1895 123.277 26.6724 125.287 26.6724C127.082 26.6724 128.578 26.985 129.765 27.6089L128.972 30.1844C127.854 29.5798 126.593 29.2775 125.182 29.2775C124.067 29.2775 123.193 29.5517 122.567 30.097C122.041 30.5846 121.774 31.1788 121.774 31.8842C121.774 32.6622 122.078 33.3083 122.683 33.8151C123.207 34.2819 124.165 34.7902 125.549 35.3355C127.248 36.0201 128.496 36.8174 129.295 37.7332C130.1 38.649 130.5 39.7915 130.5 41.1534ZM140.976 34.8361H137.492V41.7402C137.492 43.4963 138.106 44.3721 139.336 44.3721C139.901 44.3721 140.369 44.3246 140.74 44.2254L140.827 46.6245C140.205 46.8572 139.385 46.9743 138.37 46.9743C137.122 46.9743 136.146 46.5934 135.442 45.8317C134.741 45.07 134.388 43.7941 134.388 41.9981V34.8302H132.313V32.4591H134.388V29.8555L137.492 28.9189V32.4591H140.976V34.8361ZM156.661 39.4581C156.661 41.6439 156.036 43.4385 154.787 44.8418C153.482 46.2867 151.744 47.0069 149.579 47.0069C147.489 47.0069 145.827 46.3148 144.588 44.9322C143.349 43.5466 142.729 41.801 142.729 39.6952C142.729 37.4916 143.369 35.6867 144.646 34.2834C145.925 32.8785 147.647 32.1761 149.813 32.1761C151.9 32.1761 153.576 32.8696 154.845 34.2537C156.058 35.5963 156.661 37.3301 156.661 39.4581ZM153.385 39.5307C153.385 38.2281 153.104 37.1108 152.539 36.1757C151.876 35.0465 150.928 34.4819 149.699 34.4819C148.433 34.4819 147.462 35.0465 146.801 36.1757C146.235 37.1108 145.953 38.2474 145.953 39.59C145.953 40.8941 146.235 42.0144 146.801 42.9465C147.484 44.0757 148.437 44.6403 149.672 44.6403C150.88 44.6403 151.827 44.0638 152.512 42.9183C153.093 41.961 153.385 40.8363 153.385 39.5307ZM166.938 35.2436C166.609 35.1843 166.276 35.155 165.942 35.1562C164.83 35.1562 163.97 35.5741 163.365 36.4158C162.841 37.1567 162.577 38.0933 162.577 39.224V46.6853H159.417V36.9433C159.419 35.4506 159.389 33.9579 159.325 32.4666H162.077L162.193 35.1873H162.28C162.615 34.2522 163.14 33.498 163.861 32.9334C164.52 32.44 165.321 32.1728 166.145 32.1717C166.437 32.1717 166.701 32.1924 166.935 32.2295L166.938 35.2436ZM181.071 38.9024C181.079 39.3827 181.041 39.8626 180.956 40.3354H171.475C171.511 41.7402 171.97 42.8161 172.851 43.557C173.65 44.2179 174.683 44.5499 175.951 44.5499C177.355 44.5499 178.636 44.3276 179.788 43.8786L180.283 46.0703C178.937 46.6571 177.348 46.9491 175.514 46.9491C173.309 46.9491 171.577 46.3 170.317 45.0048C169.06 43.7082 168.43 41.9655 168.43 39.7826C168.43 37.6398 169.016 35.8542 170.188 34.4301C171.416 32.9096 173.074 32.1494 175.161 32.1494C177.211 32.1494 178.763 32.9096 179.817 34.4301C180.652 35.6348 181.071 37.1286 181.071 38.9024ZM178.058 38.0829C178.08 37.1449 177.873 36.3373 177.444 35.6541C176.897 34.7739 176.055 34.3352 174.927 34.3352C173.894 34.3352 173.052 34.7635 172.412 35.623C171.886 36.3061 171.573 37.1271 171.476 38.08L178.058 38.0829Z" fill="white"/>
<path d="M67.0155 19.9923C66.1365 19.9923 65.3761 19.9493 64.7432 19.8767V10.3422C65.6284 10.2055 66.523 10.1381 67.4187 10.1407C71.0429 10.1407 72.7119 11.9234 72.7119 14.8294C72.7119 18.1814 70.7405 19.9923 67.0155 19.9923ZM67.5462 11.3632C67.057 11.3632 66.6405 11.3929 66.2951 11.464V18.7119C66.4819 18.7416 66.8406 18.7549 67.3446 18.7549C69.7192 18.7549 71.071 17.4034 71.071 14.8724C71.071 12.6154 69.8481 11.3632 67.5462 11.3632ZM77.9132 20.0649C75.8707 20.0649 74.547 18.54 74.547 16.4698C74.547 14.3122 75.8988 12.774 78.0289 12.774C80.0418 12.774 81.3951 14.2263 81.3951 16.3557C81.3951 18.54 80.0003 20.0649 77.9132 20.0649ZM77.9725 13.9091C76.8504 13.9091 76.1315 14.9583 76.1315 16.4254C76.1315 17.8643 76.8653 18.9135 77.9577 18.9135C79.0502 18.9135 79.7839 17.7917 79.7839 16.3957C79.7839 14.9731 79.065 13.9091 77.9725 13.9091ZM93.0429 12.9177L90.8565 19.9063H89.4321L88.5264 16.8714C88.3012 16.1291 88.1137 15.3758 87.9646 14.6145H87.935C87.8208 15.3762 87.6044 16.1394 87.3747 16.8714L86.4112 19.9063H84.9719L82.9145 12.9177H84.5109L85.3024 16.2401C85.4892 17.0315 85.6463 17.7783 85.7768 18.4837H85.8064C85.9205 17.8954 86.1073 17.1604 86.3815 16.255L87.3747 12.9192H88.6405L89.5907 16.1838C89.8204 16.9752 90.0072 17.7517 90.1525 18.4852H90.194C90.2948 17.7665 90.4534 17.0033 90.6683 16.1838L91.5176 12.9192L93.0429 12.9177ZM101.092 19.9063H99.5383V15.8934C99.5383 14.6575 99.0639 14.0381 98.1286 14.0381C97.2081 14.0381 96.5752 14.8294 96.5752 15.7496V19.9063H95.0218V14.9153C95.0218 14.2974 95.0069 13.635 94.9639 12.9163H96.3306L96.4032 13.9951H96.4462C96.8642 13.2482 97.7121 12.774 98.6622 12.774C100.13 12.774 101.093 13.8958 101.093 15.7215L101.092 19.9063ZM105.375 19.9063H103.821V9.71094H105.375V19.9063ZM111.039 20.0649C108.998 20.0649 107.673 18.54 107.673 16.4698C107.673 14.3122 109.025 12.774 111.153 12.774C113.168 12.774 114.52 14.2263 114.52 16.3557C114.521 18.54 113.125 20.0649 111.039 20.0649ZM111.097 13.9091C109.975 13.9091 109.256 14.9583 109.256 16.4254C109.256 17.8643 109.991 18.9135 111.081 18.9135C112.175 18.9135 112.907 17.7917 112.907 16.3957C112.908 14.9731 112.191 13.9091 111.097 13.9091ZM120.644 19.9063L120.532 19.1017H120.49C120.016 19.7493 119.324 20.0649 118.446 20.0649C117.194 20.0649 116.304 19.1876 116.304 18.008C116.304 16.2831 117.8 15.391 120.39 15.391V15.2621C120.39 14.3418 119.902 13.881 118.938 13.881C118.249 13.881 117.644 14.0544 117.112 14.3996L116.796 13.3786C117.443 12.9755 118.249 12.774 119.196 12.774C121.022 12.774 121.944 13.7372 121.944 15.6652V18.2392C121.944 18.9446 121.976 19.4914 122.045 19.9078L120.644 19.9063ZM120.431 16.4254C118.706 16.4254 117.84 16.8433 117.84 17.8347C117.84 18.5682 118.286 18.9268 118.906 18.9268C119.696 18.9268 120.431 18.3237 120.431 17.5042V16.4254ZM129.488 19.9063L129.415 18.7846H129.372C128.926 19.6322 128.176 20.0649 127.128 20.0649C125.443 20.0649 124.195 18.583 124.195 16.498C124.195 14.3122 125.489 12.7725 127.255 12.7725C128.191 12.7725 128.853 13.0882 129.227 13.7224H129.258V9.71094H130.813V18.0229C130.813 18.6986 130.829 19.3314 130.871 19.9063H129.488ZM129.258 15.7941C129.258 14.8161 128.61 13.9817 127.622 13.9817C126.47 13.9817 125.766 15.0028 125.766 16.4402C125.766 17.8495 126.497 18.8142 127.59 18.8142C128.567 18.8142 129.258 17.9651 129.258 16.9589V15.7941ZM140.672 20.0649C138.631 20.0649 137.307 18.54 137.307 16.4698C137.307 14.3122 138.659 12.774 140.787 12.774C142.802 12.774 144.154 14.2263 144.154 16.3557C144.155 18.54 142.76 20.0649 140.672 20.0649ZM140.729 13.9091C139.609 13.9091 138.89 14.9583 138.89 16.4254C138.89 17.8643 139.624 18.9135 140.715 18.9135C141.809 18.9135 142.541 17.7917 142.541 16.3957C142.544 14.9731 141.825 13.9091 140.729 13.9091ZM152.508 19.9063H150.953V15.8934C150.953 14.6575 150.478 14.0381 149.543 14.0381C148.623 14.0381 147.991 14.8294 147.991 15.7496V19.9063H146.436V14.9153C146.436 14.2974 146.421 13.635 146.378 12.9163H147.745L147.818 13.9951H147.861C148.277 13.2482 149.127 12.7725 150.075 12.7725C151.543 12.7725 152.508 13.8943 152.508 15.72V19.9063ZM162.959 14.0825H161.25V17.476C161.25 18.34 161.55 18.7712 162.154 18.7712C162.429 18.7712 162.658 18.7416 162.844 18.6986L162.887 19.8782C162.586 19.9938 162.183 20.0516 161.681 20.0516C160.457 20.0516 159.725 19.3758 159.725 17.6064V14.0825H158.705V12.9177H159.725V11.6374L161.25 11.1765V12.9163H162.959V14.0825ZM171.183 19.9063H169.631V15.923C169.631 14.6723 169.158 14.0395 168.221 14.0395C167.416 14.0395 166.666 14.5864 166.666 15.6933V19.9063H165.114V9.71094H166.666V13.9091H166.698C167.187 13.1474 167.895 12.7725 168.799 12.7725C170.279 12.7725 171.183 13.9225 171.183 15.7496V19.9063ZM179.608 16.7855H174.946C174.976 18.1088 175.852 18.8557 177.149 18.8557C177.838 18.8557 178.473 18.7401 179.033 18.5252L179.275 19.604C178.614 19.8915 177.835 20.0353 176.93 20.0353C174.743 20.0353 173.449 18.6541 173.449 16.5128C173.449 14.37 174.775 12.7592 176.755 12.7592C178.541 12.7592 179.662 14.0825 179.662 16.0816C179.672 16.3175 179.654 16.5538 179.608 16.7855ZM178.184 15.6785C178.184 14.5997 177.64 13.838 176.647 13.838C175.754 13.838 175.049 14.6145 174.948 15.6785H178.184Z" fill="white"/>
<defs>
<linearGradient id="paint0_linear_5_3321" x1="146.685" y1="59.4166" x2="146.685" y2="-154.301" gradientUnits="userSpaceOnUse">
<stop stop-color="#1A1A1A" stop-opacity="0.1"/>
<stop offset="0.123" stop-color="#212121" stop-opacity="0.151"/>
<stop offset="0.308" stop-color="#353535" stop-opacity="0.227"/>
<stop offset="0.532" stop-color="#575757" stop-opacity="0.318"/>
<stop offset="0.783" stop-color="#858585" stop-opacity="0.421"/>
<stop offset="1" stop-color="#B3B3B3" stop-opacity="0.51"/>
</linearGradient>
</defs>
</svg>
