<svg width="129" height="15" viewBox="0 0 129 15" fill="none" xmlns="http://www.w3.org/2000/svg">
<path d="M0.246281 7.989H1.92005V14.7581C1.92005 14.8917 2.03029 15 2.16633 15H5.00428C5.14032 15 5.25056 14.8917 5.25056 14.7581V8.02089H7.1747C7.29981 8.02089 7.40507 7.92866 7.41935 7.80658L7.71159 5.31455C7.71962 5.24598 7.6975 5.17732 7.65081 5.12589C7.60407 5.0744 7.53718 5.04494 7.46699 5.04494H5.25066V3.48281C5.25066 3.0119 5.50876 2.77311 6.01787 2.77311C6.09042 2.77311 7.46699 2.77311 7.46699 2.77311C7.60303 2.77311 7.71327 2.66477 7.71327 2.53118V0.243726C7.71327 0.110081 7.60303 0.00179032 7.46699 0.00179032H5.4699C5.45581 0.0011129 5.42453 0 5.37843 0C5.03191 0 3.82745 0.0668225 2.87602 0.926661C1.82184 1.8795 1.96837 3.02037 2.0034 3.21818V5.04489H0.246281C0.110235 5.04489 0 5.15318 0 5.28682V7.74702C0 7.88066 0.110235 7.989 0.246281 7.989Z" fill="black"/>
<path d="M36.4993 4.81963H33.4814C33.3475 4.81963 33.2389 4.92821 33.2389 5.0621V14.7572C33.2389 14.8912 33.3475 14.9997 33.4814 14.9997H36.4993C36.6332 14.9997 36.7417 14.8912 36.7417 14.7572V5.0621C36.7417 4.92821 36.6332 4.81963 36.4993 4.81963Z" fill="black"/>
<path d="M34.9914 0C33.8933 0 33 0.89237 33 1.98924C33 3.08659 33.8933 3.9793 34.9914 3.9793C36.0886 3.9793 36.9812 3.08654 36.9812 1.98924C36.9813 0.89237 36.0886 0 34.9914 0Z" fill="black"/>
<path d="M44.1755 4.57904C42.9634 4.57904 42.0674 5.1001 41.5239 5.69215V5.06247C41.5239 4.92858 41.4154 4.82 41.2814 4.82H38.3913C38.2574 4.82 38.1488 4.92858 38.1488 5.06247V14.7576C38.1488 14.8915 38.2574 15.0001 38.3913 15.0001H41.4026C41.5365 15.0001 41.645 14.8915 41.645 14.7576V9.96075C41.645 8.34433 42.0841 7.7146 43.2109 7.7146C44.438 7.7146 44.5356 8.72413 44.5356 10.0439V14.7576C44.5356 14.8916 44.6441 15.0001 44.778 15.0001H47.7904C47.9244 15.0001 48.0329 14.8916 48.0329 14.7576V9.4397C48.0329 7.03613 47.5746 4.57904 44.1755 4.57904Z" fill="black"/>
<path d="M127.999 1.73112C127.709 1.85876 127.412 1.9665 127.108 2.05399C127.468 1.64914 127.742 1.17279 127.909 0.651541C127.947 0.534709 127.908 0.406819 127.812 0.330386C127.715 0.253918 127.581 0.244757 127.475 0.307342C126.83 0.688183 126.133 0.961889 125.403 1.12191C124.668 0.406927 123.669 0 122.636 0C120.456 0 118.683 1.76433 118.683 3.93293C118.683 4.10373 118.693 4.27359 118.715 4.44109C116.01 4.20481 113.495 2.88209 111.768 0.774635C111.707 0.699526 111.612 0.65902 111.515 0.666784C111.418 0.674335 111.33 0.728832 111.281 0.812601C110.931 1.4105 110.746 2.09436 110.746 2.79016C110.746 3.73784 111.086 4.63697 111.687 5.33957C111.504 5.27663 111.327 5.19798 111.157 5.10455C111.067 5.05424 110.956 5.05502 110.866 5.10648C110.775 5.15797 110.719 5.25262 110.716 5.3561C110.716 5.37353 110.716 5.39096 110.716 5.40863C110.716 6.82318 111.481 8.09674 112.651 8.79086C112.551 8.78088 112.45 8.76639 112.35 8.74742C112.247 8.72785 112.142 8.76374 112.072 8.84182C112.003 8.91982 111.98 9.02857 112.012 9.12787C112.445 10.473 113.56 11.4624 114.908 11.764C113.79 12.4606 112.511 12.8255 111.169 12.8255C110.889 12.8255 110.608 12.8092 110.332 12.7767C110.195 12.7605 110.064 12.8409 110.017 12.9705C109.971 13.1001 110.02 13.2446 110.137 13.3189C111.861 14.4187 113.854 15 115.902 15C119.927 15 122.445 13.1118 123.848 11.5277C125.598 9.55251 126.602 6.93811 126.602 4.35492C126.602 4.247 126.6 4.13804 126.597 4.0294C127.288 3.51187 127.882 2.88552 128.366 2.16564C128.439 2.05632 128.431 1.91179 128.346 1.81117C128.261 1.71037 128.119 1.6778 127.999 1.73112Z" fill="black"/>
<path d="M83.2605 1.53713C82.228 0.545922 80.7991 0 79.2371 0C76.851 0 75.3835 0.978083 74.5725 1.79855C73.5731 2.80968 73 4.15228 73 5.48213C73 7.15186 73.6984 8.43343 74.868 8.91021C74.9465 8.94238 75.0255 8.95858 75.103 8.95858C75.3497 8.95858 75.5452 8.79713 75.6129 8.53817C75.6524 8.3896 75.7439 8.02307 75.7837 7.86396C75.8688 7.54974 75.8 7.3986 75.6144 7.17978C75.2761 6.77952 75.1186 6.30623 75.1186 5.69026C75.1186 3.86062 76.4809 1.91612 79.006 1.91612C81.0095 1.91612 82.254 3.05484 82.254 4.88784C82.254 6.04455 82.0049 7.11577 81.5523 7.9043C81.2378 8.45221 80.6849 9.10533 79.8359 9.10533C79.4689 9.10533 79.1391 8.95454 78.931 8.69163C78.7345 8.4431 78.6697 8.12206 78.7487 7.78746C78.838 7.40941 78.9598 7.01507 79.0777 6.63386C79.2926 5.93758 79.4958 5.27995 79.4958 4.75527C79.4958 3.85784 78.9441 3.25482 78.1231 3.25482C77.0796 3.25482 76.2621 4.31461 76.2621 5.66755C76.2621 6.33107 76.4385 6.82737 76.5183 7.01791C76.3869 7.57485 75.6056 10.886 75.4574 11.5104C75.3717 11.8749 74.8556 14.7537 75.7099 14.9833C76.6698 15.2412 77.5278 12.4374 77.6152 12.1206C77.686 11.8629 77.9336 10.8886 78.0854 10.2896C78.5488 10.736 79.2949 11.0377 80.0208 11.0377C81.3895 11.0377 82.6203 10.4219 83.4866 9.30367C84.3268 8.21909 84.7896 6.70742 84.7896 5.04733C84.7895 3.74953 84.2322 2.47007 83.2605 1.53713Z" fill="black"/>
</svg>
