<svg width="220" height="70" viewBox="0 0 220 70" fill="none" xmlns="http://www.w3.org/2000/svg">
<g filter="url(#filter0_d_57_4282)">
<rect x="10" y="6" width="200" height="50" rx="25" fill="#1B144E"/>
</g>
<path d="M36.136 30.632H41.896V31.992H36.136V30.632ZM36.28 35.608H42.808V37H34.68V25.8H42.584V27.192H36.28V35.608ZM43.7553 37L47.4033 32.264L47.3873 33.048L43.9153 28.52H45.6273L48.2833 32.008H47.6273L50.2833 28.52H51.9633L48.4433 33.08L48.4593 32.264L52.1393 37H50.3953L47.5953 33.288L48.2193 33.384L45.4673 37H43.7553ZM58.3114 37.096C57.6074 37.096 56.962 36.936 56.3754 36.616C55.7994 36.2853 55.3354 35.8 54.9834 35.16C54.642 34.52 54.4714 33.72 54.4714 32.76C54.4714 31.8 54.6367 31 54.9674 30.36C55.3087 29.72 55.7674 29.24 56.3434 28.92C56.93 28.6 57.586 28.44 58.3114 28.44C59.1434 28.44 59.8794 28.6213 60.5194 28.984C61.1594 29.3467 61.666 29.8533 62.0394 30.504C62.4127 31.144 62.5994 31.896 62.5994 32.76C62.5994 33.624 62.4127 34.3813 62.0394 35.032C61.666 35.6827 61.1594 36.1893 60.5194 36.552C59.8794 36.9147 59.1434 37.096 58.3114 37.096ZM53.8154 40.104V28.52H55.2874V30.808L55.1914 32.776L55.3514 34.744V40.104H53.8154ZM58.1834 35.752C58.7274 35.752 59.2127 35.6293 59.6394 35.384C60.0767 35.1387 60.418 34.792 60.6634 34.344C60.9194 33.8853 61.0474 33.3573 61.0474 32.76C61.0474 32.152 60.9194 31.6293 60.6634 31.192C60.418 30.744 60.0767 30.3973 59.6394 30.152C59.2127 29.9067 58.7274 29.784 58.1834 29.784C57.65 29.784 57.1647 29.9067 56.7274 30.152C56.3007 30.3973 55.9594 30.744 55.7034 31.192C55.458 31.6293 55.3354 32.152 55.3354 32.76C55.3354 33.3573 55.458 33.8853 55.7034 34.344C55.9594 34.792 56.3007 35.1387 56.7274 35.384C57.1647 35.6293 57.65 35.752 58.1834 35.752ZM64.7216 37V25.128H66.2576V37H64.7216ZM74.4544 37V35.208L74.3744 34.872V31.816C74.3744 31.1653 74.1824 30.664 73.7984 30.312C73.425 29.9493 72.8597 29.768 72.1024 29.768C71.601 29.768 71.1104 29.8533 70.6304 30.024C70.1504 30.184 69.745 30.4027 69.4144 30.68L68.7744 29.528C69.2117 29.176 69.7344 28.9093 70.3424 28.728C70.961 28.536 71.6064 28.44 72.2784 28.44C73.441 28.44 74.337 28.7227 74.9664 29.288C75.5957 29.8533 75.9104 30.7173 75.9104 31.88V37H74.4544ZM71.6704 37.096C71.041 37.096 70.4864 36.9893 70.0064 36.776C69.537 36.5627 69.1744 36.2693 68.9184 35.896C68.6624 35.512 68.5344 35.08 68.5344 34.6C68.5344 34.1413 68.641 33.7253 68.8544 33.352C69.0784 32.9787 69.4357 32.68 69.9264 32.456C70.4277 32.232 71.0997 32.12 71.9424 32.12H74.6304V33.224H72.0064C71.2384 33.224 70.721 33.352 70.4544 33.608C70.1877 33.864 70.0544 34.1733 70.0544 34.536C70.0544 34.952 70.2197 35.288 70.5504 35.544C70.881 35.7893 71.3397 35.912 71.9264 35.912C72.5024 35.912 73.0037 35.784 73.4304 35.528C73.8677 35.272 74.1824 34.8987 74.3744 34.408L74.6784 35.464C74.4757 35.9653 74.1184 36.3653 73.6064 36.664C73.0944 36.952 72.449 37.096 71.6704 37.096ZM78.7529 37V28.52H80.2889V37H78.7529ZM79.5209 26.888C79.2222 26.888 78.9715 26.792 78.7689 26.6C78.5769 26.408 78.4809 26.1733 78.4809 25.896C78.4809 25.608 78.5769 25.368 78.7689 25.176C78.9715 24.984 79.2222 24.888 79.5209 24.888C79.8195 24.888 80.0649 24.984 80.2569 25.176C80.4595 25.3573 80.5609 25.5867 80.5609 25.864C80.5609 26.152 80.4649 26.3973 80.2729 26.6C80.0809 26.792 79.8302 26.888 79.5209 26.888ZM87.7496 28.44C88.443 28.44 89.051 28.5733 89.5736 28.84C90.107 29.1067 90.523 29.512 90.8216 30.056C91.1203 30.6 91.2696 31.288 91.2696 32.12V37H89.7336V32.296C89.7336 31.4747 89.531 30.856 89.1256 30.44C88.731 30.024 88.171 29.816 87.4456 29.816C86.9016 29.816 86.427 29.9227 86.0216 30.136C85.6163 30.3493 85.3016 30.664 85.0776 31.08C84.8643 31.496 84.7576 32.0133 84.7576 32.632V37H83.2216V28.52H84.6936V30.808L84.4536 30.2C84.731 29.6453 85.1576 29.2133 85.7336 28.904C86.3096 28.5947 86.9816 28.44 87.7496 28.44ZM97.8883 37.096C96.9816 37.096 96.1816 36.9093 95.4883 36.536C94.8056 36.1627 94.2723 35.6507 93.8883 35C93.5149 34.3493 93.3283 33.6027 93.3283 32.76C93.3283 31.9173 93.5096 31.1707 93.8723 30.52C94.2456 29.8693 94.7523 29.3627 95.3923 29C96.0429 28.6267 96.7736 28.44 97.5843 28.44C98.4056 28.44 99.1309 28.6213 99.7603 28.984C100.39 29.3467 100.88 29.8587 101.232 30.52C101.595 31.1707 101.776 31.9333 101.776 32.808C101.776 32.872 101.771 32.9467 101.76 33.032C101.76 33.1173 101.755 33.1973 101.744 33.272H94.5283V32.168H100.944L100.32 32.552C100.331 32.008 100.219 31.5227 99.9843 31.096C99.7496 30.6693 99.4243 30.3387 99.0083 30.104C98.6029 29.8587 98.1283 29.736 97.5843 29.736C97.0509 29.736 96.5763 29.8587 96.1603 30.104C95.7443 30.3387 95.4189 30.6747 95.1843 31.112C94.9496 31.5387 94.8323 32.0293 94.8323 32.584V32.84C94.8323 33.4053 94.9603 33.912 95.2163 34.36C95.4829 34.7973 95.8509 35.1387 96.3203 35.384C96.7896 35.6293 97.3283 35.752 97.9363 35.752C98.4376 35.752 98.8909 35.6667 99.2963 35.496C99.7123 35.3253 100.075 35.0693 100.384 34.728L101.232 35.72C100.848 36.168 100.368 36.5093 99.7923 36.744C99.2269 36.9787 98.5923 37.096 97.8883 37.096ZM103.909 37V28.52H105.381V30.824L105.237 30.248C105.472 29.6613 105.866 29.2133 106.421 28.904C106.976 28.5947 107.658 28.44 108.469 28.44V29.928C108.405 29.9173 108.341 29.912 108.277 29.912C108.224 29.912 108.17 29.912 108.117 29.912C107.296 29.912 106.645 30.1573 106.165 30.648C105.685 31.1387 105.445 31.848 105.445 32.776V37H103.909ZM118.225 37L113.296 25.8H115.025L119.553 36.136H118.561L123.121 25.8H124.721L119.809 37H118.225ZM125.94 37V28.52H127.476V37H125.94ZM126.708 26.888C126.41 26.888 126.159 26.792 125.956 26.6C125.764 26.408 125.668 26.1733 125.668 25.896C125.668 25.608 125.764 25.368 125.956 25.176C126.159 24.984 126.41 24.888 126.708 24.888C127.007 24.888 127.252 24.984 127.444 25.176C127.647 25.3573 127.748 25.5867 127.748 25.864C127.748 26.152 127.652 26.3973 127.46 26.6C127.268 26.792 127.018 26.888 126.708 26.888ZM133.913 37.096C133.092 37.096 132.356 36.9147 131.705 36.552C131.065 36.1893 130.558 35.6827 130.185 35.032C129.812 34.3813 129.625 33.624 129.625 32.76C129.625 31.896 129.812 31.144 130.185 30.504C130.558 29.8533 131.065 29.3467 131.705 28.984C132.356 28.6213 133.092 28.44 133.913 28.44C134.628 28.44 135.273 28.6 135.849 28.92C136.425 29.24 136.884 29.72 137.225 30.36C137.577 31 137.753 31.8 137.753 32.76C137.753 33.72 137.582 34.52 137.241 35.16C136.91 35.8 136.457 36.2853 135.881 36.616C135.305 36.936 134.649 37.096 133.913 37.096ZM134.041 35.752C134.574 35.752 135.054 35.6293 135.481 35.384C135.918 35.1387 136.26 34.792 136.505 34.344C136.761 33.8853 136.889 33.3573 136.889 32.76C136.889 32.152 136.761 31.6293 136.505 31.192C136.26 30.744 135.918 30.3973 135.481 30.152C135.054 29.9067 134.574 29.784 134.041 29.784C133.497 29.784 133.012 29.9067 132.585 30.152C132.158 30.3973 131.817 30.744 131.561 31.192C131.305 31.6293 131.177 32.152 131.177 32.76C131.177 33.3573 131.305 33.8853 131.561 34.344C131.817 34.792 132.158 35.1387 132.585 35.384C133.012 35.6293 133.497 35.752 134.041 35.752ZM136.937 37V34.712L137.033 32.744L136.873 30.776V25.128H138.409V37H136.937ZM145.091 37.096C144.185 37.096 143.385 36.9093 142.691 36.536C142.009 36.1627 141.475 35.6507 141.091 35C140.718 34.3493 140.531 33.6027 140.531 32.76C140.531 31.9173 140.713 31.1707 141.075 30.52C141.449 29.8693 141.955 29.3627 142.595 29C143.246 28.6267 143.977 28.44 144.787 28.44C145.609 28.44 146.334 28.6213 146.963 28.984C147.593 29.3467 148.083 29.8587 148.435 30.52C148.798 31.1707 148.979 31.9333 148.979 32.808C148.979 32.872 148.974 32.9467 148.963 33.032C148.963 33.1173 148.958 33.1973 148.947 33.272H141.731V32.168H148.147L147.523 32.552C147.534 32.008 147.422 31.5227 147.187 31.096C146.953 30.6693 146.627 30.3387 146.211 30.104C145.806 29.8587 145.331 29.736 144.787 29.736C144.254 29.736 143.779 29.8587 143.363 30.104C142.947 30.3387 142.622 30.6747 142.387 31.112C142.153 31.5387 142.035 32.0293 142.035 32.584V32.84C142.035 33.4053 142.163 33.912 142.419 34.36C142.686 34.7973 143.054 35.1387 143.523 35.384C143.993 35.6293 144.531 35.752 145.139 35.752C145.641 35.752 146.094 35.6667 146.499 35.496C146.915 35.3253 147.278 35.0693 147.587 34.728L148.435 35.72C148.051 36.168 147.571 36.5093 146.995 36.744C146.43 36.9787 145.795 37.096 145.091 37.096ZM154.744 37.096C153.891 37.096 153.134 36.9093 152.472 36.536C151.811 36.1627 151.288 35.6507 150.904 35C150.52 34.3387 150.328 33.592 150.328 32.76C150.328 31.9173 150.52 31.1707 150.904 30.52C151.288 29.8693 151.811 29.3627 152.472 29C153.134 28.6267 153.891 28.44 154.744 28.44C155.587 28.44 156.339 28.6267 157 29C157.672 29.3627 158.195 29.8693 158.568 30.52C158.952 31.16 159.144 31.9067 159.144 32.76C159.144 33.6027 158.952 34.3493 158.568 35C158.195 35.6507 157.672 36.1627 157 36.536C156.339 36.9093 155.587 37.096 154.744 37.096ZM154.744 35.752C155.288 35.752 155.774 35.6293 156.2 35.384C156.638 35.1387 156.979 34.792 157.224 34.344C157.47 33.8853 157.592 33.3573 157.592 32.76C157.592 32.152 157.47 31.6293 157.224 31.192C156.979 30.744 156.638 30.3973 156.2 30.152C155.774 29.9067 155.288 29.784 154.744 29.784C154.2 29.784 153.715 29.9067 153.288 30.152C152.862 30.3973 152.52 30.744 152.264 31.192C152.008 31.6293 151.88 32.152 151.88 32.76C151.88 33.3573 152.008 33.8853 152.264 34.344C152.52 34.792 152.862 35.1387 153.288 35.384C153.715 35.6293 154.2 35.752 154.744 35.752Z" fill="white"/>
<path d="M186.5 32.866C186.809 32.6874 187 32.3573 187 32C187 31.6427 186.809 31.3126 186.5 31.134L173 23.3397C172.691 23.1611 172.309 23.1611 172 23.3397C171.691 23.5184 171.5 23.8485 171.5 24.2058L171.5 39.7942C171.5 40.1515 171.691 40.4816 172 40.6603C172.309 40.8389 172.691 40.8389 173 40.6603L186.5 32.866Z" stroke="white" stroke-width="2" stroke-linejoin="round"/>
<defs>
<filter id="filter0_d_57_4282" x="0" y="0" width="220" height="70" filterUnits="userSpaceOnUse" color-interpolation-filters="sRGB">
<feFlood flood-opacity="0" result="BackgroundImageFix"/>
<feColorMatrix in="SourceAlpha" type="matrix" values="0 0 0 0 0 0 0 0 0 0 0 0 0 0 0 0 0 0 127 0" result="hardAlpha"/>
<feOffset dy="4"/>
<feGaussianBlur stdDeviation="5"/>
<feComposite in2="hardAlpha" operator="out"/>
<feColorMatrix type="matrix" values="0 0 0 0 0 0 0 0 0 0 0 0 0 0 0 0 0 0 0.25 0"/>
<feBlend mode="normal" in2="BackgroundImageFix" result="effect1_dropShadow_57_4282"/>
<feBlend mode="normal" in="SourceGraphic" in2="effect1_dropShadow_57_4282" result="shape"/>
</filter>
</defs>
</svg>
